<svg width="103" height="61" viewBox="0 0 103 61" fill="none" xmlns="http://www.w3.org/2000/svg">
<mask id="path-1-outside-1_1739_584" maskUnits="userSpaceOnUse" x="-7" y="-8" width="117" height="76" fill="black">
<rect fill="white" x="-7" y="-8" width="117" height="76"/>
<path d="M15.776 46H0.8V5.824C0.8 2.008 3.32 -0.00800419 8.288 -0.00800419H28.88V11.512H15.92C15.848 11.512 15.776 11.584 15.776 11.656V14.32H28.736V25.84H15.776V46ZM50.3135 34.552V27.352H46.7855C46.7135 27.352 46.6415 27.424 46.6415 27.496V34.408C46.6415 34.48 46.7135 34.552 46.7855 34.552H50.3135ZM65.2895 46H39.1535C34.1855 46 31.6655 44.128 31.6655 40.312V22.96C31.6655 19.144 34.1855 17.272 39.1535 17.272H50.3135V11.656C50.3135 11.584 50.2415 11.512 50.1695 11.512H46.7855C46.7135 11.512 46.6415 11.584 46.6415 11.656V14.32H31.6655V5.824C31.6655 1.936 34.1855 -0.00800419 39.1535 -0.00800419H57.8015C62.7695 -0.00800419 65.2895 1.936 65.2895 5.824V46ZM102.415 60.328H87.4385V46H76.2785C71.0945 46 68.7905 44.128 68.7905 40.312V5.824C68.7905 1.936 71.3105 -0.00800419 76.2785 -0.00800419H102.415V60.328ZM87.4385 34.552V11.512H83.9105C83.8385 11.512 83.7665 11.584 83.7665 11.656V34.408C83.7665 34.48 83.8385 34.552 83.9105 34.552H87.4385Z"/>
</mask>
<path d="M15.776 46H0.8V5.824C0.8 2.008 3.32 -0.00800419 8.288 -0.00800419H28.88V11.512H15.92C15.848 11.512 15.776 11.584 15.776 11.656V14.32H28.736V25.84H15.776V46ZM50.3135 34.552V27.352H46.7855C46.7135 27.352 46.6415 27.424 46.6415 27.496V34.408C46.6415 34.48 46.7135 34.552 46.7855 34.552H50.3135ZM65.2895 46H39.1535C34.1855 46 31.6655 44.128 31.6655 40.312V22.96C31.6655 19.144 34.1855 17.272 39.1535 17.272H50.3135V11.656C50.3135 11.584 50.2415 11.512 50.1695 11.512H46.7855C46.7135 11.512 46.6415 11.584 46.6415 11.656V14.32H31.6655V5.824C31.6655 1.936 34.1855 -0.00800419 39.1535 -0.00800419H57.8015C62.7695 -0.00800419 65.2895 1.936 65.2895 5.824V46ZM102.415 60.328H87.4385V46H76.2785C71.0945 46 68.7905 44.128 68.7905 40.312V5.824C68.7905 1.936 71.3105 -0.00800419 76.2785 -0.00800419H102.415V60.328ZM87.4385 34.552V11.512H83.9105C83.8385 11.512 83.7665 11.584 83.7665 11.656V34.408C83.7665 34.48 83.8385 34.552 83.9105 34.552H87.4385Z" fill="white"/>
<path d="M15.776 46V53H22.776V46H15.776ZM0.8 46H-6.2V53H0.8V46ZM28.88 -0.00800323H35.88V-7.008H28.88V-0.00800323ZM28.88 11.512V18.512H35.88V11.512H28.88ZM15.776 14.32H8.776V21.32H15.776V14.32ZM28.736 14.32H35.736V7.32H28.736V14.32ZM28.736 25.84V32.84H35.736V25.84H28.736ZM15.776 25.84V18.84H8.776V25.84H15.776ZM15.776 39H0.8V53H15.776V39ZM7.8 46V5.824H-6.2V46H7.8ZM7.8 5.824C7.8 5.63398 7.83114 5.76969 7.69608 6.08193C7.62868 6.23774 7.53146 6.4094 7.40074 6.57876C7.27008 6.74805 7.13018 6.88366 7.0005 6.98535C6.74139 7.18853 6.61632 7.18597 6.82121 7.13148C7.03642 7.07424 7.49872 6.992 8.288 6.992V-7.008C5.02915 -7.008 1.34914 -6.37418 -1.6385 -4.03135C-4.92938 -1.45073 -6.2 2.25002 -6.2 5.824H7.8ZM8.288 6.992H28.88V-7.008H8.288V6.992ZM21.88 -0.00800323V11.512H35.88V-0.00800323H21.88ZM28.88 4.512H15.92V18.512H28.88V4.512ZM15.92 4.512C13.6073 4.512 11.8806 5.59786 10.8712 6.60726C9.86184 7.61666 8.776 9.34336 8.776 11.656H22.776C22.776 13.8966 21.7262 15.5513 20.7708 16.5067C19.8154 17.4621 18.1607 18.512 15.92 18.512V4.512ZM8.776 11.656V14.32H22.776V11.656H8.776ZM15.776 21.32H28.736V7.32H15.776V21.32ZM21.736 14.32V25.84H35.736V14.32H21.736ZM28.736 18.84H15.776V32.84H28.736V18.84ZM8.776 25.84V46H22.776V25.84H8.776ZM50.3135 34.552V41.552H57.3135V34.552H50.3135ZM50.3135 27.352H57.3135V20.352H50.3135V27.352ZM65.2895 46V53H72.2895V46H65.2895ZM50.3135 17.272V24.272H57.3135V17.272H50.3135ZM46.6415 14.32V21.32H53.6415V14.32H46.6415ZM31.6655 14.32H24.6655V21.32H31.6655V14.32ZM57.3135 34.552V27.352H43.3135V34.552H57.3135ZM50.3135 20.352H46.7855V34.352H50.3135V20.352ZM46.7855 20.352C44.4729 20.352 42.7462 21.4378 41.7368 22.4472C40.7273 23.4567 39.6415 25.1834 39.6415 27.496H53.6415C53.6415 29.7366 52.5917 31.3913 51.6362 32.3468C50.6808 33.3022 49.0261 34.352 46.7855 34.352V20.352ZM39.6415 27.496V34.408H53.6415V27.496H39.6415ZM39.6415 34.408C39.6415 36.7206 40.7273 38.4473 41.7368 39.4567C42.7462 40.4662 44.4729 41.552 46.7855 41.552V27.552C49.0261 27.552 50.6808 28.6018 51.6362 29.5573C52.5917 30.5127 53.6415 32.1674 53.6415 34.408H39.6415ZM46.7855 41.552H50.3135V27.552H46.7855V41.552ZM65.2895 39H39.1535V53H65.2895V39ZM39.1535 39C38.3282 39 37.836 38.9199 37.595 38.8593C37.362 38.8007 37.4893 38.7927 37.7658 39.0015C37.906 39.1074 38.0609 39.2519 38.2074 39.4365C38.3542 39.6214 38.4648 39.8116 38.5423 39.9874C38.6972 40.3388 38.6655 40.5039 38.6655 40.312H24.6655C24.6655 43.9043 25.9542 47.6245 29.3272 50.1725C32.3286 52.4397 35.9918 53 39.1535 53V39ZM38.6655 40.312V22.96H24.6655V40.312H38.6655ZM38.6655 22.96C38.6655 22.7681 38.6972 22.9332 38.5423 23.2846C38.4648 23.4604 38.3542 23.6506 38.2074 23.8355C38.0609 24.0201 37.906 24.1646 37.7658 24.2705C37.4893 24.4793 37.362 24.4713 37.595 24.4127C37.836 24.3521 38.3282 24.272 39.1535 24.272V10.272C35.9918 10.272 32.3286 10.8323 29.3272 13.0995C25.9542 15.6475 24.6655 19.3677 24.6655 22.96H38.6655ZM39.1535 24.272H50.3135V10.272H39.1535V24.272ZM57.3135 17.272V11.656H43.3135V17.272H57.3135ZM57.3135 11.656C57.3135 9.34333 56.2276 7.61663 55.2183 6.60725C54.2089 5.59787 52.4822 4.512 50.1695 4.512V18.512C47.9288 18.512 46.2741 17.4621 45.3188 16.5067C44.3634 15.5514 43.3135 13.8967 43.3135 11.656H57.3135ZM50.1695 4.512H46.7855V18.512H50.1695V4.512ZM46.7855 4.512C44.4728 4.512 42.7461 5.59786 41.7367 6.60726C40.7273 7.61666 39.6415 9.34336 39.6415 11.656H53.6415C53.6415 13.8966 52.5917 15.5513 51.6363 16.5067C50.6809 17.4621 49.0262 18.512 46.7855 18.512V4.512ZM39.6415 11.656V14.32H53.6415V11.656H39.6415ZM46.6415 7.32H31.6655V21.32H46.6415V7.32ZM38.6655 14.32V5.824H24.6655V14.32H38.6655ZM38.6655 5.824C38.6655 5.59896 38.7022 5.72493 38.5663 6.04071C38.498 6.1993 38.398 6.37684 38.2615 6.55332C38.1249 6.72978 37.9781 6.87136 37.8413 6.9776C37.5692 7.18908 37.4359 7.18667 37.6486 7.13137C37.8717 7.07337 38.3456 6.992 39.1535 6.992V-7.008C35.9459 -7.008 32.2567 -6.41247 29.2517 -4.07761C25.9154 -1.48541 24.6655 2.24805 24.6655 5.824H38.6655ZM39.1535 6.992H57.8015V-7.008H39.1535V6.992ZM57.8015 6.992C58.6094 6.992 59.0833 7.07337 59.3064 7.13137C59.5191 7.18667 59.3858 7.18908 59.1137 6.9776C58.9769 6.87136 58.8301 6.72978 58.6935 6.55332C58.557 6.37684 58.457 6.1993 58.3887 6.0407C58.2528 5.72493 58.2895 5.59896 58.2895 5.824H72.2895C72.2895 2.24805 71.0396 -1.48541 67.7033 -4.07761C64.6983 -6.41247 61.0091 -7.008 57.8015 -7.008V6.992ZM58.2895 5.824V46H72.2895V5.824H58.2895ZM102.415 60.328V67.328H109.415V60.328H102.415ZM87.4385 60.328H80.4385V67.328H87.4385V60.328ZM87.4385 46H94.4385V39H87.4385V46ZM102.415 -0.00800323H109.415V-7.008H102.415V-0.00800323ZM87.4385 34.552V41.552H94.4385V34.552H87.4385ZM87.4385 11.512H94.4385V4.512H87.4385V11.512ZM102.415 53.328H87.4385V67.328H102.415V53.328ZM94.4385 60.328V46H80.4385V60.328H94.4385ZM87.4385 39H76.2785V53H87.4385V39ZM76.2785 39C75.3766 39 74.856 38.9158 74.6116 38.855C74.379 38.7971 74.5476 38.7986 74.8683 39.0462C75.0302 39.1712 75.2003 39.3361 75.3556 39.5394C75.5105 39.7421 75.6198 39.9427 75.6921 40.1161C75.8329 40.4537 75.7905 40.5802 75.7905 40.312H61.7905C61.7905 43.7094 62.8974 47.491 66.3127 50.1278C69.3414 52.4661 73.0785 53 76.2785 53V39ZM75.7905 40.312V5.824H61.7905V40.312H75.7905ZM75.7905 5.824C75.7905 5.59896 75.8272 5.72493 75.6913 6.04071C75.623 6.1993 75.523 6.37684 75.3865 6.55332C75.2499 6.72978 75.1031 6.87136 74.9663 6.9776C74.6942 7.18908 74.5609 7.18667 74.7736 7.13137C74.9967 7.07337 75.4706 6.992 76.2785 6.992V-7.008C73.0709 -7.008 69.3817 -6.41247 66.3767 -4.07761C63.0404 -1.48541 61.7905 2.24805 61.7905 5.824H75.7905ZM76.2785 6.992H102.415V-7.008H76.2785V6.992ZM95.4145 -0.00800323V60.328H109.415V-0.00800323H95.4145ZM94.4385 34.552V11.512H80.4385V34.552H94.4385ZM87.4385 4.512H83.9105V18.512H87.4385V4.512ZM83.9105 4.512C81.5978 4.512 79.8711 5.59786 78.8617 6.60726C77.8523 7.61666 76.7665 9.34336 76.7665 11.656H90.7665C90.7665 13.8966 89.7167 15.5513 88.7613 16.5067C87.8059 17.4621 86.1512 18.512 83.9105 18.512V4.512ZM76.7665 11.656V34.408H90.7665V11.656H76.7665ZM76.7665 34.408C76.7665 36.7206 77.8523 38.4473 78.8618 39.4567C79.8712 40.4662 81.5979 41.552 83.9105 41.552V27.552C86.1511 27.552 87.8058 28.6018 88.7612 29.5573C89.7167 30.5127 90.7665 32.1674 90.7665 34.408H76.7665ZM83.9105 41.552H87.4385V27.552H83.9105V41.552Z" fill="black" mask="url(#path-1-outside-1_1739_584)"/>
</svg>
