<svg width="310" height="203" viewBox="0 0 310 203" fill="none" xmlns="http://www.w3.org/2000/svg">
<mask id="path-1-outside-1_1469_1844" maskUnits="userSpaceOnUse" x="-9" y="-9" width="328" height="222" fill="black">
<rect fill="white" x="-9" y="-9" width="328" height="222"/>
<path d="M51.8054 71H12.0267C4.46542 71 0.63 68.1508 0.63 62.3429V9.8525C0.63 3.93499 4.46542 0.976242 12.0267 0.976242H40.4088C47.97 0.976242 51.8054 3.93499 51.8054 9.8525V21.6875H29.0121V18.7287C29.0121 18.6192 28.9025 18.5096 28.7929 18.5096H23.6425C23.5329 18.5096 23.4233 18.6192 23.4233 18.7287V53.3571C23.4233 53.4667 23.5329 53.5762 23.6425 53.5762H29.0121V28.1529H51.8054V71ZM85.516 53.5762V42.6179H80.1464C80.0368 42.6179 79.9272 42.7275 79.9272 42.8371V53.3571C79.9272 53.4667 80.0368 53.5762 80.1464 53.5762H85.516ZM108.309 71H68.5306C60.9693 71 57.1339 68.1508 57.1339 62.3429V35.9333C57.1339 30.1254 60.9693 27.2762 68.5306 27.2762H85.516V18.7287C85.516 18.6192 85.4064 18.5096 85.2968 18.5096H80.1464C80.0368 18.5096 79.9272 18.6192 79.9272 18.7287V22.7833H57.1339V9.8525C57.1339 3.93499 60.9693 0.976242 68.5306 0.976242H96.9127C104.474 0.976242 108.309 3.93499 108.309 9.8525V71ZM249.959 92.8071H182.237C176.648 92.8071 170.84 88.6429 170.84 84.15V18.7287C170.84 18.6192 170.731 18.5096 170.621 18.5096H165.252C165.142 18.5096 165.032 18.6192 165.032 18.7287V71H142.239V18.7287C142.239 18.6192 142.129 18.5096 142.02 18.5096H136.869C136.76 18.5096 136.65 18.6192 136.65 18.7287V71H113.857V0.976242H136.65V5.46916C139.39 2.51042 144.869 0.976242 151.444 0.976242C158.129 0.976242 161.416 2.72958 163.937 6.23625C167.334 1.96249 172.265 0.976242 179.388 0.976242C187.278 0.976242 193.414 5.03083 193.414 10.7292V75.1642C193.414 75.2738 193.524 75.3833 193.634 75.3833H249.959V92.8071ZM227.166 28.4817V18.7287C227.166 18.6192 227.057 18.5096 226.947 18.5096H221.797C221.687 18.5096 221.577 18.6192 221.577 18.7287V28.4817H227.166ZM238.563 71H210.181C202.619 71 198.784 68.1508 198.784 62.3429V9.8525C198.784 3.93499 202.619 0.976242 210.181 0.976242H238.563C246.124 0.976242 249.959 3.93499 249.959 9.8525V44.8096H221.577V53.3571C221.577 53.4667 221.687 53.5762 221.797 53.5762H226.947C227.057 53.5762 227.166 53.4667 227.166 53.3571V49.1929H249.959V62.3429C249.959 68.1508 246.124 71 238.563 71ZM40.4088 203H12.0267C4.46542 203 0.63 200.151 0.63 194.343V141.852C0.63 135.935 4.46542 132.976 12.0267 132.976H40.4088C47.97 132.976 51.8054 135.935 51.8054 141.852V162.564H29.0121V150.729C29.0121 150.619 28.9025 150.51 28.7929 150.51H23.6425C23.5329 150.51 23.4233 150.619 23.4233 150.729V185.357C23.4233 185.467 23.5329 185.576 23.6425 185.576H28.7929C28.9025 185.576 29.0121 185.467 29.0121 185.357V169.029H51.8054V194.343C51.8054 200.151 47.97 203 40.4088 203ZM85.409 185.357V150.729C85.409 150.619 85.2994 150.51 85.1898 150.51H80.0394C79.9298 150.51 79.8202 150.619 79.8202 150.729V185.357C79.8202 185.467 79.9298 185.576 80.0394 185.576H85.1898C85.2994 185.576 85.409 185.467 85.409 185.357ZM96.8056 203H68.4236C60.8623 203 57.0269 200.151 57.0269 194.343V141.852C57.0269 135.935 60.8623 132.976 68.4236 132.976H96.8056C104.367 132.976 108.202 135.935 108.202 141.852V194.343C108.202 200.151 104.367 203 96.8056 203ZM164.599 203H124.82C116.93 203 113.424 200.151 113.424 194.343V141.852C113.424 135.935 117.259 132.976 124.82 132.976H141.806V115.443H164.599V203ZM141.806 185.576V150.51H136.436C136.327 150.51 136.217 150.619 136.217 150.729V185.357C136.217 185.467 136.327 185.576 136.436 185.576H141.806ZM198.417 160.482V150.729C198.417 150.619 198.307 150.51 198.198 150.51H193.047C192.938 150.51 192.828 150.619 192.828 150.729V160.482H198.417ZM209.813 203H181.431C173.87 203 170.035 200.151 170.035 194.343V141.852C170.035 135.935 173.87 132.976 181.431 132.976H209.813C217.375 132.976 221.21 135.935 221.21 141.852V176.81H192.828V185.357C192.828 185.467 192.938 185.576 193.047 185.576H198.198C198.307 185.576 198.417 185.467 198.417 185.357V181.193H221.21V194.343C221.21 200.151 217.375 203 209.813 203ZM279.36 203H255.033L249.554 187.877L243.855 203H224.569L238.815 165.522L225.774 132.976H248.458L253.827 148.099L259.197 132.976H277.278L264.895 164.975L279.36 203ZM286.495 203H280.327V184.052H286.495V203ZM294.198 203H288.03V198.285H294.198V203ZM303.353 198.226V188.856C303.353 188.826 303.323 188.797 303.294 188.797H301.9C301.87 188.797 301.841 188.826 301.841 188.856V198.226C301.841 198.256 301.87 198.285 301.9 198.285H303.294C303.323 198.285 303.353 198.256 303.353 198.226ZM306.437 203H298.757C296.711 203 295.673 202.229 295.673 200.657V186.454C295.673 184.853 296.711 184.052 298.757 184.052H306.437C308.483 184.052 309.521 184.853 309.521 186.454V200.657C309.521 202.229 308.483 203 306.437 203Z"/>
</mask>
<path d="M51.8054 71H12.0267C4.46542 71 0.63 68.1508 0.63 62.3429V9.8525C0.63 3.93499 4.46542 0.976242 12.0267 0.976242H40.4088C47.97 0.976242 51.8054 3.93499 51.8054 9.8525V21.6875H29.0121V18.7287C29.0121 18.6192 28.9025 18.5096 28.7929 18.5096H23.6425C23.5329 18.5096 23.4233 18.6192 23.4233 18.7287V53.3571C23.4233 53.4667 23.5329 53.5762 23.6425 53.5762H29.0121V28.1529H51.8054V71ZM85.516 53.5762V42.6179H80.1464C80.0368 42.6179 79.9272 42.7275 79.9272 42.8371V53.3571C79.9272 53.4667 80.0368 53.5762 80.1464 53.5762H85.516ZM108.309 71H68.5306C60.9693 71 57.1339 68.1508 57.1339 62.3429V35.9333C57.1339 30.1254 60.9693 27.2762 68.5306 27.2762H85.516V18.7287C85.516 18.6192 85.4064 18.5096 85.2968 18.5096H80.1464C80.0368 18.5096 79.9272 18.6192 79.9272 18.7287V22.7833H57.1339V9.8525C57.1339 3.93499 60.9693 0.976242 68.5306 0.976242H96.9127C104.474 0.976242 108.309 3.93499 108.309 9.8525V71ZM249.959 92.8071H182.237C176.648 92.8071 170.84 88.6429 170.84 84.15V18.7287C170.84 18.6192 170.731 18.5096 170.621 18.5096H165.252C165.142 18.5096 165.032 18.6192 165.032 18.7287V71H142.239V18.7287C142.239 18.6192 142.129 18.5096 142.02 18.5096H136.869C136.76 18.5096 136.65 18.6192 136.65 18.7287V71H113.857V0.976242H136.65V5.46916C139.39 2.51042 144.869 0.976242 151.444 0.976242C158.129 0.976242 161.416 2.72958 163.937 6.23625C167.334 1.96249 172.265 0.976242 179.388 0.976242C187.278 0.976242 193.414 5.03083 193.414 10.7292V75.1642C193.414 75.2738 193.524 75.3833 193.634 75.3833H249.959V92.8071ZM227.166 28.4817V18.7287C227.166 18.6192 227.057 18.5096 226.947 18.5096H221.797C221.687 18.5096 221.577 18.6192 221.577 18.7287V28.4817H227.166ZM238.563 71H210.181C202.619 71 198.784 68.1508 198.784 62.3429V9.8525C198.784 3.93499 202.619 0.976242 210.181 0.976242H238.563C246.124 0.976242 249.959 3.93499 249.959 9.8525V44.8096H221.577V53.3571C221.577 53.4667 221.687 53.5762 221.797 53.5762H226.947C227.057 53.5762 227.166 53.4667 227.166 53.3571V49.1929H249.959V62.3429C249.959 68.1508 246.124 71 238.563 71ZM40.4088 203H12.0267C4.46542 203 0.63 200.151 0.63 194.343V141.852C0.63 135.935 4.46542 132.976 12.0267 132.976H40.4088C47.97 132.976 51.8054 135.935 51.8054 141.852V162.564H29.0121V150.729C29.0121 150.619 28.9025 150.51 28.7929 150.51H23.6425C23.5329 150.51 23.4233 150.619 23.4233 150.729V185.357C23.4233 185.467 23.5329 185.576 23.6425 185.576H28.7929C28.9025 185.576 29.0121 185.467 29.0121 185.357V169.029H51.8054V194.343C51.8054 200.151 47.97 203 40.4088 203ZM85.409 185.357V150.729C85.409 150.619 85.2994 150.51 85.1898 150.51H80.0394C79.9298 150.51 79.8202 150.619 79.8202 150.729V185.357C79.8202 185.467 79.9298 185.576 80.0394 185.576H85.1898C85.2994 185.576 85.409 185.467 85.409 185.357ZM96.8056 203H68.4236C60.8623 203 57.0269 200.151 57.0269 194.343V141.852C57.0269 135.935 60.8623 132.976 68.4236 132.976H96.8056C104.367 132.976 108.202 135.935 108.202 141.852V194.343C108.202 200.151 104.367 203 96.8056 203ZM164.599 203H124.82C116.93 203 113.424 200.151 113.424 194.343V141.852C113.424 135.935 117.259 132.976 124.82 132.976H141.806V115.443H164.599V203ZM141.806 185.576V150.51H136.436C136.327 150.51 136.217 150.619 136.217 150.729V185.357C136.217 185.467 136.327 185.576 136.436 185.576H141.806ZM198.417 160.482V150.729C198.417 150.619 198.307 150.51 198.198 150.51H193.047C192.938 150.51 192.828 150.619 192.828 150.729V160.482H198.417ZM209.813 203H181.431C173.87 203 170.035 200.151 170.035 194.343V141.852C170.035 135.935 173.87 132.976 181.431 132.976H209.813C217.375 132.976 221.21 135.935 221.21 141.852V176.81H192.828V185.357C192.828 185.467 192.938 185.576 193.047 185.576H198.198C198.307 185.576 198.417 185.467 198.417 185.357V181.193H221.21V194.343C221.21 200.151 217.375 203 209.813 203ZM279.36 203H255.033L249.554 187.877L243.855 203H224.569L238.815 165.522L225.774 132.976H248.458L253.827 148.099L259.197 132.976H277.278L264.895 164.975L279.36 203ZM286.495 203H280.327V184.052H286.495V203ZM294.198 203H288.03V198.285H294.198V203ZM303.353 198.226V188.856C303.353 188.826 303.323 188.797 303.294 188.797H301.9C301.87 188.797 301.841 188.826 301.841 188.856V198.226C301.841 198.256 301.87 198.285 301.9 198.285H303.294C303.323 198.285 303.353 198.256 303.353 198.226ZM306.437 203H298.757C296.711 203 295.673 202.229 295.673 200.657V186.454C295.673 184.853 296.711 184.052 298.757 184.052H306.437C308.483 184.052 309.521 184.853 309.521 186.454V200.657C309.521 202.229 308.483 203 306.437 203Z" fill="white"/>
<path d="M51.8054 71V80.0245H60.8299V71H51.8054ZM51.8054 21.6875V30.712H60.8299V21.6875H51.8054ZM29.0121 21.6875H19.9876V30.712H29.0121V21.6875ZM29.0121 53.5762V62.6008H38.0366V53.5762H29.0121ZM29.0121 28.1529V19.1284H19.9876V28.1529H29.0121ZM51.8054 28.1529H60.8299V19.1284H51.8054V28.1529ZM51.8054 61.9755H12.0267V80.0245H51.8054V61.9755ZM12.0267 61.9755C10.6735 61.9755 9.78553 61.845 9.25719 61.7121C8.73926 61.5819 8.72162 61.4893 8.9324 61.6485C9.19348 61.8457 9.45522 62.1653 9.60539 62.506C9.73202 62.7933 9.65451 62.8124 9.65451 62.3429H-8.39451C-8.39451 67.4183 -6.58651 72.5454 -1.94667 76.0503C2.21396 79.1933 7.3724 80.0245 12.0267 80.0245V61.9755ZM9.65451 62.3429V9.8525H-8.39451V62.3429H9.65451ZM9.65451 9.8525C9.65451 9.33611 9.73851 9.30054 9.6363 9.53795C9.51148 9.82785 9.28033 10.1269 9.02983 10.3216C8.82454 10.4811 8.83442 10.3931 9.32632 10.2653C9.83162 10.1339 10.696 10.0008 12.0267 10.0008V-8.04827C7.31322 -8.04827 2.12127 -7.16737 -2.0441 -3.93097C-6.63646 -0.362804 -8.39451 4.78981 -8.39451 9.8525H9.65451ZM12.0267 10.0008H40.4088V-8.04827H12.0267V10.0008ZM40.4088 10.0008C41.7394 10.0008 42.6038 10.1339 43.1091 10.2653C43.601 10.3931 43.6109 10.4811 43.4056 10.3216C43.1551 10.1269 42.9239 9.82785 42.7991 9.53795C42.6969 9.30054 42.7809 9.33611 42.7809 9.8525H60.8299C60.8299 4.78981 59.0719 -0.362804 54.4795 -3.93097C50.3142 -7.16737 45.1222 -8.04827 40.4088 -8.04827V10.0008ZM42.7809 9.8525V21.6875H60.8299V9.8525H42.7809ZM51.8054 12.663H29.0121V30.712H51.8054V12.663ZM38.0366 21.6875V18.7287H19.9876V21.6875H38.0366ZM38.0366 18.7287C38.0366 15.7388 36.6325 13.5044 35.3249 12.1968C34.0173 10.8892 31.7828 9.48507 28.7929 9.48507V27.5341C25.9126 27.5341 23.7877 26.1848 22.5623 24.9594C21.3369 23.734 19.9876 21.6091 19.9876 18.7287H38.0366ZM28.7929 9.48507H23.6425V27.5341H28.7929V9.48507ZM23.6425 9.48507C20.6526 9.48507 18.4181 10.8892 17.1105 12.1968C15.8029 13.5044 14.3988 15.7389 14.3988 18.7287H32.4478C32.4478 21.609 31.0986 23.7339 29.8731 24.9593C28.6477 26.1848 26.5228 27.5341 23.6425 27.5341V9.48507ZM14.3988 18.7287V53.3571H32.4478V18.7287H14.3988ZM14.3988 53.3571C14.3988 56.3469 15.8029 58.5814 17.1105 59.8891C18.4182 61.1967 20.6527 62.6008 23.6425 62.6008V44.5517C26.5228 44.5517 28.6477 45.901 29.8731 47.1265C31.0986 48.3519 32.4478 50.4768 32.4478 53.3571H14.3988ZM23.6425 62.6008H29.0121V44.5517H23.6425V62.6008ZM38.0366 53.5762V28.1529H19.9876V53.5762H38.0366ZM29.0121 37.1774H51.8054V19.1284H29.0121V37.1774ZM42.7809 28.1529V71H60.8299V28.1529H42.7809ZM85.516 53.5762V62.6008H94.5405V53.5762H85.516ZM85.516 42.6179H94.5405V33.5934H85.516V42.6179ZM108.309 71V80.0245H117.334V71H108.309ZM85.516 27.2762V36.3008H94.5405V27.2762H85.516ZM79.9272 22.7833V31.8078H88.9518V22.7833H79.9272ZM57.1339 22.7833H48.1094V31.8078H57.1339V22.7833ZM94.5405 53.5762V42.6179H76.4915V53.5762H94.5405ZM85.516 33.5934H80.1464V51.6424H85.516V33.5934ZM80.1464 33.5934C77.1566 33.5934 74.9221 34.9974 73.6145 36.3051C72.3068 37.6128 70.9027 39.8473 70.9027 42.8371H88.9518C88.9518 45.7173 87.6025 47.8422 86.377 49.0677C85.1515 50.2932 83.0266 51.6424 80.1464 51.6424V33.5934ZM70.9027 42.8371V53.3571H88.9518V42.8371H70.9027ZM70.9027 53.3571C70.9027 56.3469 72.3068 58.5814 73.6144 59.8891C74.9221 61.1967 77.1566 62.6008 80.1464 62.6008V44.5517C83.0267 44.5517 85.1516 45.901 86.377 47.1265C87.6025 48.3519 88.9518 50.4768 88.9518 53.3571H70.9027ZM80.1464 62.6008H85.516V44.5517H80.1464V62.6008ZM108.309 61.9755H68.5306V80.0245H108.309V61.9755ZM68.5306 61.9755C67.1774 61.9755 66.2894 61.845 65.7611 61.7121C65.2432 61.5819 65.2255 61.4893 65.4363 61.6485C65.6974 61.8457 65.9591 62.1653 66.1093 62.506C66.2359 62.7933 66.1584 62.8124 66.1584 62.3429H48.1094C48.1094 67.4183 49.9174 72.5454 54.5572 76.0503C58.7179 79.1933 63.8763 80.0245 68.5306 80.0245V61.9755ZM66.1584 62.3429V35.9333H48.1094V62.3429H66.1584ZM66.1584 35.9333C66.1584 35.4639 66.2359 35.4829 66.1093 35.7702C65.9591 36.1109 65.6974 36.4305 65.4363 36.6277C65.2255 36.787 65.2432 36.6944 65.7611 36.5641C66.2894 36.4313 67.1774 36.3008 68.5306 36.3008V18.2517C63.8763 18.2517 58.7179 19.083 54.5572 22.2259C49.9174 25.7308 48.1094 30.8579 48.1094 35.9333H66.1584ZM68.5306 36.3008H85.516V18.2517H68.5306V36.3008ZM94.5405 27.2762V18.7287H76.4915V27.2762H94.5405ZM94.5405 18.7287C94.5405 15.7388 93.1364 13.5044 91.8288 12.1968C90.5212 10.8892 88.2867 9.48507 85.2968 9.48507V27.5341C82.4165 27.5341 80.2916 26.1848 79.0662 24.9594C77.8408 23.734 76.4915 21.6091 76.4915 18.7287H94.5405ZM85.2968 9.48507H80.1464V27.5341H85.2968V9.48507ZM80.1464 9.48507C77.1565 9.48507 74.922 10.8892 73.6144 12.1968C72.3068 13.5044 70.9027 15.7389 70.9027 18.7287H88.9518C88.9518 21.609 87.6025 23.7339 86.377 24.9593C85.1516 26.1848 83.0267 27.5341 80.1464 27.5341V9.48507ZM70.9027 18.7287V22.7833H88.9518V18.7287H70.9027ZM79.9272 13.7588H57.1339V31.8078H79.9272V13.7588ZM66.1584 22.7833V9.8525H48.1094V22.7833H66.1584ZM66.1584 9.8525C66.1584 9.33611 66.2424 9.30054 66.1402 9.53795C66.0154 9.82785 65.7842 10.1269 65.5337 10.3216C65.3284 10.4811 65.3383 10.3931 65.8302 10.2653C66.3355 10.1339 67.1999 10.0008 68.5306 10.0008V-8.04827C63.8171 -8.04827 58.6252 -7.16737 54.4598 -3.93097C49.8675 -0.362804 48.1094 4.78981 48.1094 9.8525H66.1584ZM68.5306 10.0008H96.9127V-8.04827H68.5306V10.0008ZM96.9127 10.0008C98.2433 10.0008 99.1077 10.1339 99.613 10.2653C100.105 10.3931 100.115 10.4811 99.9095 10.3216C99.659 10.1269 99.4278 9.82785 99.303 9.53795C99.2008 9.30054 99.2848 9.33611 99.2848 9.8525H117.334C117.334 4.78981 115.576 -0.362804 110.983 -3.93097C106.818 -7.16737 101.626 -8.04827 96.9127 -8.04827V10.0008ZM99.2848 9.8525V71H117.334V9.8525H99.2848ZM249.959 92.8071V101.832H258.984V92.8071H249.959ZM165.032 71V80.0245H174.057V71H165.032ZM142.239 71H133.215V80.0245H142.239V71ZM136.65 71V80.0245H145.675V71H136.65ZM113.857 71H104.832V80.0245H113.857V71ZM113.857 0.976242V-8.04827H104.832V0.976242H113.857ZM136.65 0.976242H145.675V-8.04827H136.65V0.976242ZM136.65 5.46916H127.626V28.4985L143.272 11.6005L136.65 5.46916ZM163.937 6.23625L156.609 11.5033L163.574 21.195L171.001 11.8517L163.937 6.23625ZM249.959 75.3833H258.984V66.3588H249.959V75.3833ZM227.166 28.4817V37.5062H236.191V28.4817H227.166ZM221.577 28.4817H212.553V37.5062H221.577V28.4817ZM249.959 44.8096V53.8341H258.984V44.8096H249.959ZM221.577 44.8096V35.7851H212.553V44.8096H221.577ZM227.166 49.1929V40.1684H218.142V49.1929H227.166ZM249.959 49.1929H258.984V40.1684H249.959V49.1929ZM249.959 83.7826H182.237V101.832H249.959V83.7826ZM182.237 83.7826C181.944 83.7826 181.53 83.7243 181.051 83.5583C180.571 83.3923 180.148 83.1603 179.835 82.9272C179.509 82.684 179.448 82.55 179.512 82.6533C179.584 82.7711 179.865 83.2903 179.865 84.15H161.816C161.816 90.331 165.652 94.8669 169.05 97.3996C172.624 100.062 177.337 101.832 182.237 101.832V83.7826ZM179.865 84.15V18.7287H161.816V84.15H179.865ZM179.865 18.7287C179.865 15.7389 178.461 13.5045 177.153 12.1968C175.846 10.8892 173.611 9.48507 170.621 9.48507V27.5341C167.741 27.5341 165.616 26.1847 164.39 24.9593C163.165 23.7339 161.816 21.609 161.816 18.7287H179.865ZM170.621 9.48507H165.252V27.5341H170.621V9.48507ZM165.252 9.48507C162.262 9.48507 160.027 10.8891 158.72 12.1968C157.412 13.5045 156.008 15.7389 156.008 18.7287H174.057C174.057 21.609 172.708 23.7339 171.482 24.9593C170.257 26.1848 168.132 27.5341 165.252 27.5341V9.48507ZM156.008 18.7287V71H174.057V18.7287H156.008ZM165.032 61.9755H142.239V80.0245H165.032V61.9755ZM151.264 71V18.7287H133.215V71H151.264ZM151.264 18.7287C151.264 15.7388 149.859 13.5044 148.552 12.1968C147.244 10.8892 145.01 9.48507 142.02 9.48507V27.5341C139.14 27.5341 137.015 26.1848 135.789 24.9594C134.564 23.734 133.215 21.6091 133.215 18.7287H151.264ZM142.02 9.48507H136.869V27.5341H142.02V9.48507ZM136.869 9.48507C133.88 9.48507 131.645 10.8892 130.337 12.1968C129.03 13.5044 127.626 15.7389 127.626 18.7287H145.675C145.675 21.609 144.326 23.7339 143.1 24.9593C141.875 26.1848 139.75 27.5341 136.869 27.5341V9.48507ZM127.626 18.7287V71H145.675V18.7287H127.626ZM136.65 61.9755H113.857V80.0245H136.65V61.9755ZM122.881 71V0.976242H104.832V71H122.881ZM113.857 10.0008H136.65V-8.04827H113.857V10.0008ZM127.626 0.976242V5.46916H145.675V0.976242H127.626ZM143.272 11.6005C143.18 11.6997 143.592 11.2357 145.181 10.7635C146.695 10.3133 148.81 10.0008 151.444 10.0008V-8.04827C144.192 -8.04827 135.416 -6.48065 130.028 -0.66217L143.272 11.6005ZM151.444 10.0008C154.069 10.0008 155.18 10.3571 155.587 10.5379C155.816 10.64 156.087 10.778 156.609 11.5033L171.265 0.969219C169.265 -1.81216 166.632 -4.30422 162.917 -5.95546C159.379 -7.52798 155.503 -8.04827 151.444 -8.04827V10.0008ZM171.001 11.8517C171.449 11.2888 171.918 10.9357 172.909 10.632C174.163 10.2478 176.107 10.0008 179.388 10.0008V-8.04827C171.86 -8.04827 163.043 -7.14219 156.872 0.620804L171.001 11.8517ZM179.388 10.0008C181.89 10.0008 183.526 10.6586 184.261 11.1618C184.601 11.395 184.633 11.5103 184.564 11.3946C184.474 11.242 184.39 10.9855 184.39 10.7292H202.439C202.439 4.26925 198.863 -0.71431 194.459 -3.73018C190.153 -6.67878 184.775 -8.04827 179.388 -8.04827V10.0008ZM184.39 10.7292V75.1642H202.439V10.7292H184.39ZM184.39 75.1642C184.39 78.154 185.794 80.3884 187.102 81.6961C188.409 83.0037 190.644 84.4078 193.634 84.4078V66.3588C196.514 66.3588 198.639 67.7081 199.864 68.9336C201.09 70.1591 202.439 72.2839 202.439 75.1642H184.39ZM193.634 84.4078H249.959V66.3588H193.634V84.4078ZM240.935 75.3833V92.8071H258.984V75.3833H240.935ZM236.191 28.4817V18.7287H218.142V28.4817H236.191ZM236.191 18.7287C236.191 15.7388 234.786 13.5043 233.479 12.1968C232.171 10.8893 229.937 9.48507 226.947 9.48507V27.5341C224.067 27.5341 221.942 26.1847 220.716 24.9594C219.491 23.734 218.142 21.6091 218.142 18.7287H236.191ZM226.947 9.48507H221.797V27.5341H226.947V9.48507ZM221.797 9.48507C218.807 9.48507 216.572 10.8891 215.264 12.1969C213.957 13.5046 212.553 15.7391 212.553 18.7287H230.602C230.602 21.6088 229.253 23.7337 228.027 24.9592C226.802 26.1848 224.677 27.5341 221.797 27.5341V9.48507ZM212.553 18.7287V28.4817H230.602V18.7287H212.553ZM221.577 37.5062H227.166V19.4572H221.577V37.5062ZM238.563 61.9755H210.181V80.0245H238.563V61.9755ZM210.181 61.9755C208.828 61.9755 207.94 61.845 207.411 61.7121C206.893 61.5819 206.876 61.4893 207.086 61.6485C207.348 61.8457 207.609 62.1653 207.759 62.506C207.886 62.7933 207.809 62.8124 207.809 62.3429H189.76C189.76 67.4183 191.568 72.5454 196.207 76.0503C200.368 79.1933 205.526 80.0245 210.181 80.0245V61.9755ZM207.809 62.3429V9.8525H189.76V62.3429H207.809ZM207.809 9.8525C207.809 9.33611 207.893 9.30054 207.79 9.53795C207.666 9.82785 207.434 10.1269 207.184 10.3216C206.979 10.4811 206.988 10.3931 207.48 10.2653C207.986 10.1339 208.85 10.0008 210.181 10.0008V-8.04827C205.467 -8.04827 200.275 -7.16737 196.11 -3.93097C191.518 -0.362804 189.76 4.78981 189.76 9.8525H207.809ZM210.181 10.0008H238.563V-8.04827H210.181V10.0008ZM238.563 10.0008C239.893 10.0008 240.758 10.1339 241.263 10.2653C241.755 10.3931 241.765 10.4811 241.56 10.3216C241.309 10.1269 241.078 9.82785 240.953 9.53795C240.851 9.30054 240.935 9.33611 240.935 9.8525H258.984C258.984 4.78981 257.226 -0.362804 252.634 -3.93097C248.468 -7.16737 243.276 -8.04827 238.563 -8.04827V10.0008ZM240.935 9.8525V44.8096H258.984V9.8525H240.935ZM249.959 35.7851H221.577V53.8341H249.959V35.7851ZM212.553 44.8096V53.3571H230.602V44.8096H212.553ZM212.553 53.3571C212.553 56.3467 213.957 58.5812 215.264 59.8889C216.572 61.1967 218.807 62.6008 221.797 62.6008V44.5517C224.677 44.5517 226.802 45.901 228.027 47.1266C229.253 48.3522 230.602 50.477 230.602 53.3571H212.553ZM221.797 62.6008H226.947V44.5517H221.797V62.6008ZM226.947 62.6008C229.937 62.6008 232.171 61.1966 233.479 59.8891C234.786 58.5815 236.191 56.347 236.191 53.3571H218.142C218.142 50.4767 219.491 48.3518 220.716 47.1264C221.942 45.9011 224.067 44.5517 226.947 44.5517V62.6008ZM236.191 53.3571V49.1929H218.142V53.3571H236.191ZM227.166 58.2174H249.959V40.1684H227.166V58.2174ZM240.935 49.1929V62.3429H258.984V49.1929H240.935ZM240.935 62.3429C240.935 62.8124 240.857 62.7933 240.984 62.506C241.134 62.1653 241.396 61.8457 241.657 61.6485C241.868 61.4893 241.85 61.5819 241.332 61.7121C240.804 61.845 239.916 61.9755 238.563 61.9755V80.0245C243.217 80.0245 248.376 79.1933 252.536 76.0503C257.176 72.5454 258.984 67.4183 258.984 62.3429H240.935ZM51.8054 162.564V171.588H60.8299V162.564H51.8054ZM29.0121 162.564H19.9876V171.588H29.0121V162.564ZM29.0121 169.029V160.005H19.9876V169.029H29.0121ZM51.8054 169.029H60.8299V160.005H51.8054V169.029ZM40.4088 193.975H12.0267V212.025H40.4088V193.975ZM12.0267 193.975C10.6735 193.975 9.78553 193.845 9.25719 193.712C8.73926 193.582 8.72162 193.489 8.9324 193.649C9.19348 193.846 9.45522 194.165 9.60539 194.506C9.73202 194.793 9.65451 194.812 9.65451 194.343H-8.39451C-8.39451 199.418 -6.58651 204.545 -1.94667 208.05C2.21396 211.193 7.3724 212.025 12.0267 212.025V193.975ZM9.65451 194.343V141.852H-8.39451V194.343H9.65451ZM9.65451 141.852C9.65451 141.336 9.73851 141.301 9.6363 141.538C9.51148 141.828 9.28033 142.127 9.02983 142.322C8.82454 142.481 8.83442 142.393 9.32632 142.265C9.83162 142.134 10.696 142.001 12.0267 142.001V123.952C7.31322 123.952 2.12127 124.833 -2.0441 128.069C-6.63646 131.637 -8.39451 136.79 -8.39451 141.852H9.65451ZM12.0267 142.001H40.4088V123.952H12.0267V142.001ZM40.4088 142.001C41.7394 142.001 42.6038 142.134 43.1091 142.265C43.601 142.393 43.6109 142.481 43.4056 142.322C43.1551 142.127 42.9239 141.828 42.7991 141.538C42.6969 141.301 42.7809 141.336 42.7809 141.852H60.8299C60.8299 136.79 59.0719 131.637 54.4795 128.069C50.3142 124.833 45.1222 123.952 40.4088 123.952V142.001ZM42.7809 141.852V162.564H60.8299V141.852H42.7809ZM51.8054 153.539H29.0121V171.588H51.8054V153.539ZM38.0366 162.564V150.729H19.9876V162.564H38.0366ZM38.0366 150.729C38.0366 147.739 36.6325 145.504 35.3249 144.197C34.0173 142.889 31.7828 141.485 28.7929 141.485V159.534C25.9126 159.534 23.7877 158.185 22.5623 156.959C21.3369 155.734 19.9876 153.609 19.9876 150.729H38.0366ZM28.7929 141.485H23.6425V159.534H28.7929V141.485ZM23.6425 141.485C20.6526 141.485 18.4181 142.889 17.1105 144.197C15.8029 145.504 14.3988 147.739 14.3988 150.729H32.4478C32.4478 153.609 31.0986 155.734 29.8731 156.959C28.6477 158.185 26.5228 159.534 23.6425 159.534V141.485ZM14.3988 150.729V185.357H32.4478V150.729H14.3988ZM14.3988 185.357C14.3988 188.347 15.8029 190.581 17.1105 191.889C18.4182 193.197 20.6527 194.601 23.6425 194.601V176.552C26.5228 176.552 28.6477 177.901 29.8731 179.126C31.0986 180.352 32.4478 182.477 32.4478 185.357H14.3988ZM23.6425 194.601H28.7929V176.552H23.6425V194.601ZM28.7929 194.601C31.7828 194.601 34.0173 193.197 35.3249 191.889C36.6325 190.581 38.0366 188.347 38.0366 185.357H19.9876C19.9876 182.477 21.3369 180.352 22.5623 179.126C23.7878 177.901 25.9126 176.552 28.7929 176.552V194.601ZM38.0366 185.357V169.029H19.9876V185.357H38.0366ZM29.0121 178.054H51.8054V160.005H29.0121V178.054ZM42.7809 169.029V194.343H60.8299V169.029H42.7809ZM42.7809 194.343C42.7809 194.812 42.7034 194.793 42.83 194.506C42.9802 194.165 43.2419 193.846 43.503 193.649C43.7138 193.489 43.6962 193.582 43.1782 193.712C42.6499 193.845 41.7619 193.975 40.4088 193.975V212.025C45.063 212.025 50.2215 211.193 54.3821 208.05C59.0219 204.545 60.8299 199.418 60.8299 194.343H42.7809ZM94.4335 185.357V150.729H76.3845V185.357H94.4335ZM94.4335 150.729C94.4335 147.739 93.0294 145.504 91.7218 144.197C90.4142 142.889 88.1797 141.485 85.1898 141.485V159.534C82.3095 159.534 80.1846 158.185 78.9592 156.959C77.7338 155.734 76.3845 153.609 76.3845 150.729H94.4335ZM85.1898 141.485H80.0394V159.534H85.1898V141.485ZM80.0394 141.485C77.0495 141.485 74.815 142.889 73.5074 144.197C72.1998 145.504 70.7957 147.739 70.7957 150.729H88.8447C88.8447 153.609 87.4955 155.734 86.27 156.959C85.0446 158.185 82.9197 159.534 80.0394 159.534V141.485ZM70.7957 150.729V185.357H88.8447V150.729H70.7957ZM70.7957 185.357C70.7957 188.347 72.1998 190.581 73.5074 191.889C74.8151 193.197 77.0495 194.601 80.0394 194.601V176.552C82.9197 176.552 85.0445 177.901 86.27 179.126C87.4955 180.352 88.8447 182.477 88.8447 185.357H70.7957ZM80.0394 194.601H85.1898V176.552H80.0394V194.601ZM85.1898 194.601C88.1797 194.601 90.4141 193.197 91.7218 191.889C93.0294 190.581 94.4335 188.347 94.4335 185.357H76.3845C76.3845 182.477 77.7338 180.352 78.9592 179.126C80.1846 177.901 82.3095 176.552 85.1898 176.552V194.601ZM96.8056 193.975H68.4236V212.025H96.8056V193.975ZM68.4236 193.975C67.0704 193.975 66.1824 193.845 65.6541 193.712C65.1361 193.582 65.1185 193.489 65.3293 193.649C65.5904 193.846 65.8521 194.165 66.0023 194.506C66.1289 194.793 66.0514 194.812 66.0514 194.343H48.0024C48.0024 199.418 49.8104 204.545 54.4502 208.05C58.6109 211.193 63.7693 212.025 68.4236 212.025V193.975ZM66.0514 194.343V141.852H48.0024V194.343H66.0514ZM66.0514 141.852C66.0514 141.336 66.1354 141.301 66.0332 141.538C65.9084 141.828 65.6772 142.127 65.4267 142.322C65.2214 142.481 65.2313 142.393 65.7232 142.265C66.2285 142.134 67.0929 142.001 68.4236 142.001V123.952C63.7101 123.952 58.5182 124.833 54.3528 128.069C49.7604 131.637 48.0024 136.79 48.0024 141.852H66.0514ZM68.4236 142.001H96.8056V123.952H68.4236V142.001ZM96.8056 142.001C98.1363 142.001 99.0007 142.134 99.506 142.265C99.9979 142.393 100.008 142.481 99.8025 142.322C99.552 142.127 99.3208 141.828 99.196 141.538C99.0938 141.301 99.1778 141.336 99.1778 141.852H117.227C117.227 136.79 115.469 131.637 110.876 128.069C106.711 124.833 101.519 123.952 96.8056 123.952V142.001ZM99.1778 141.852V194.343H117.227V141.852H99.1778ZM99.1778 194.343C99.1778 194.812 99.1003 194.793 99.2269 194.506C99.3771 194.165 99.6388 193.846 99.8999 193.649C100.111 193.489 100.093 193.582 99.5751 193.712C99.0468 193.845 98.1588 193.975 96.8056 193.975V212.025C101.46 212.025 106.618 211.193 110.779 208.05C115.419 204.545 117.227 199.418 117.227 194.343H99.1778ZM164.599 203V212.025H173.624V203H164.599ZM141.806 132.976V142.001H150.83V132.976H141.806ZM141.806 115.443V106.418H132.781V115.443H141.806ZM164.599 115.443H173.624V106.418H164.599V115.443ZM141.806 185.576V194.601H150.83V185.576H141.806ZM141.806 150.51H150.83V141.485H141.806V150.51ZM164.599 193.975H124.82V212.025H164.599V193.975ZM124.82 193.975C123.356 193.975 122.425 193.84 121.89 193.707C121.37 193.577 121.407 193.497 121.678 193.706C122.006 193.959 122.282 194.331 122.424 194.672C122.537 194.941 122.448 194.911 122.448 194.343H104.399C104.399 199.167 105.96 204.373 110.648 207.993C114.838 211.227 120.092 212.025 124.82 212.025V193.975ZM122.448 194.343V141.852H104.399V194.343H122.448ZM122.448 141.852C122.448 141.336 122.532 141.301 122.43 141.538C122.305 141.828 122.074 142.127 121.824 142.322C121.618 142.481 121.628 142.393 122.12 142.265C122.625 142.134 123.49 142.001 124.82 142.001V123.952C120.107 123.952 114.915 124.833 110.75 128.069C106.157 131.637 104.399 136.79 104.399 141.852H122.448ZM124.82 142.001H141.806V123.952H124.82V142.001ZM150.83 132.976V115.443H132.781V132.976H150.83ZM141.806 124.467H164.599V106.418H141.806V124.467ZM155.575 115.443V203H173.624V115.443H155.575ZM150.83 185.576V150.51H132.781V185.576H150.83ZM141.806 141.485H136.436V159.534H141.806V141.485ZM136.436 141.485C133.446 141.485 131.212 142.889 129.904 144.197C128.597 145.504 127.193 147.739 127.193 150.729H145.242C145.242 153.609 143.892 155.734 142.667 156.959C141.441 158.185 139.317 159.534 136.436 159.534V141.485ZM127.193 150.729V185.357H145.242V150.729H127.193ZM127.193 185.357C127.193 188.347 128.597 190.581 129.904 191.889C131.212 193.197 133.446 194.601 136.436 194.601V176.552C139.317 176.552 141.441 177.901 142.667 179.126C143.892 180.352 145.242 182.477 145.242 185.357H127.193ZM136.436 194.601H141.806V176.552H136.436V194.601ZM198.417 160.482V169.506H207.441V160.482H198.417ZM192.828 160.482H183.804V169.506H192.828V160.482ZM221.21 176.81V185.834H230.235V176.81H221.21ZM192.828 176.81V167.785H183.804V176.81H192.828ZM198.417 181.193V172.168H189.392V181.193H198.417ZM221.21 181.193H230.235V172.168H221.21V181.193ZM207.441 160.482V150.729H189.392V160.482H207.441ZM207.441 150.729C207.441 147.739 206.037 145.504 204.73 144.197C203.422 142.889 201.188 141.485 198.198 141.485V159.534C195.317 159.534 193.192 158.185 191.967 156.959C190.742 155.734 189.392 153.609 189.392 150.729H207.441ZM198.198 141.485H193.047V159.534H198.198V141.485ZM193.047 141.485C190.057 141.485 187.823 142.889 186.515 144.197C185.208 145.504 183.804 147.739 183.804 150.729H201.853C201.853 153.609 200.503 155.734 199.278 156.959C198.052 158.185 195.928 159.534 193.047 159.534V141.485ZM183.804 150.729V160.482H201.853V150.729H183.804ZM192.828 169.506H198.417V151.457H192.828V169.506ZM209.813 193.975H181.431V212.025H209.813V193.975ZM181.431 193.975C180.078 193.975 179.19 193.845 178.662 193.712C178.144 193.582 178.126 193.489 178.337 193.649C178.598 193.846 178.86 194.165 179.01 194.506C179.137 194.793 179.059 194.812 179.059 194.343H161.01C161.01 199.418 162.818 204.545 167.458 208.05C171.619 211.193 176.777 212.025 181.431 212.025V193.975ZM179.059 194.343V141.852H161.01V194.343H179.059ZM179.059 141.852C179.059 141.336 179.143 141.301 179.041 141.538C178.916 141.828 178.685 142.127 178.435 142.322C178.229 142.481 178.239 142.393 178.731 142.265C179.236 142.134 180.101 142.001 181.431 142.001V123.952C176.718 123.952 171.526 124.833 167.361 128.069C162.768 131.637 161.01 136.79 161.01 141.852H179.059ZM181.431 142.001H209.813V123.952H181.431V142.001ZM209.813 142.001C211.144 142.001 212.009 142.134 212.514 142.265C213.006 142.393 213.016 142.481 212.81 142.322C212.56 142.127 212.329 141.828 212.204 141.538C212.102 141.301 212.186 141.336 212.186 141.852H230.235C230.235 136.79 228.477 131.637 223.884 128.069C219.719 124.833 214.527 123.952 209.813 123.952V142.001ZM212.186 141.852V176.81H230.235V141.852H212.186ZM221.21 167.785H192.828V185.834H221.21V167.785ZM183.804 176.81V185.357H201.853V176.81H183.804ZM183.804 185.357C183.804 188.347 185.208 190.581 186.515 191.889C187.823 193.197 190.057 194.601 193.047 194.601V176.552C195.927 176.552 198.052 177.901 199.278 179.126C200.503 180.352 201.853 182.477 201.853 185.357H183.804ZM193.047 194.601H198.198V176.552H193.047V194.601ZM198.198 194.601C201.188 194.601 203.422 193.197 204.73 191.889C206.037 190.581 207.441 188.347 207.441 185.357H189.392C189.392 182.477 190.742 180.352 191.967 179.126C193.192 177.901 195.317 176.552 198.198 176.552V194.601ZM207.441 185.357V181.193H189.392V185.357H207.441ZM198.417 190.217H221.21V172.168H198.417V190.217ZM212.186 181.193V194.343H230.235V181.193H212.186ZM212.186 194.343C212.186 194.812 212.108 194.793 212.235 194.506C212.385 194.165 212.647 193.846 212.908 193.649C213.119 193.489 213.101 193.582 212.583 193.712C212.055 193.845 211.167 193.975 209.813 193.975V212.025C214.468 212.025 219.626 211.193 223.787 208.05C228.427 204.545 230.235 199.418 230.235 194.343H212.186ZM279.36 203V212.025H292.449L287.795 199.791L279.36 203ZM255.033 203L246.548 206.074L248.704 212.025H255.033V203ZM249.554 187.878L258.038 184.803L249.72 161.843L241.109 184.695L249.554 187.878ZM243.855 203V212.025H250.099L252.3 206.182L243.855 203ZM224.569 203L216.133 199.793L211.484 212.025H224.569V203ZM238.815 165.522L247.25 168.729L248.502 165.436L247.192 162.166L238.815 165.522ZM225.774 132.976V123.952H212.436L217.397 136.333L225.774 132.976ZM248.458 132.976L256.962 129.957L254.83 123.952H248.458V132.976ZM253.827 148.099L245.323 151.118L253.827 175.069L262.332 151.118L253.827 148.099ZM259.197 132.976V123.952H252.825L250.693 129.957L259.197 132.976ZM277.278 132.976L285.695 136.233L290.447 123.952H277.278V132.976ZM264.895 164.975L256.479 161.718L255.229 164.947L256.461 168.183L264.895 164.975ZM279.36 193.975H255.033V212.025H279.36V193.975ZM263.518 199.926L258.038 184.803L241.069 190.952L246.548 206.074L263.518 199.926ZM241.109 184.695L235.41 199.818L252.3 206.182L257.999 191.06L241.109 184.695ZM243.855 193.975H224.569V212.025H243.855V193.975ZM233.004 206.207L247.25 168.729L230.379 162.316L216.133 199.793L233.004 206.207ZM247.192 162.166L234.151 129.62L217.397 136.333L230.437 168.879L247.192 162.166ZM225.774 142.001H248.458V123.952H225.774V142.001ZM239.954 135.996L245.323 151.118L262.332 145.079L256.962 129.957L239.954 135.996ZM262.332 151.118L267.701 135.996L250.693 129.957L245.323 145.079L262.332 151.118ZM259.197 142.001H277.278V123.952H259.197V142.001ZM268.862 129.719L256.479 161.718L273.312 168.232L285.695 136.233L268.862 129.719ZM256.461 168.183L270.926 206.209L287.795 199.791L273.33 161.766L256.461 168.183ZM286.495 203V212.025H295.519V203H286.495ZM280.327 203H271.303V212.025H280.327V203ZM280.327 184.052V175.028H271.303V184.052H280.327ZM286.495 184.052H295.519V175.028H286.495V184.052ZM286.495 193.975H280.327V212.025H286.495V193.975ZM289.352 203V184.052H271.303V203H289.352ZM280.327 193.077H286.495V175.028H280.327V193.077ZM277.47 184.052V203H295.519V184.052H277.47ZM294.198 203V212.025H303.222V203H294.198ZM288.03 203H279.005V212.025H288.03V203ZM288.03 198.285V189.261H279.005V198.285H288.03ZM294.198 198.285H303.222V189.261H294.198V198.285ZM294.198 193.975H288.03V212.025H294.198V193.975ZM297.054 203V198.285H279.005V203H297.054ZM288.03 207.31H294.198V189.261H288.03V207.31ZM285.173 198.285V203H303.222V198.285H285.173ZM312.378 198.226V188.856H294.329V198.226H312.378ZM312.378 188.856C312.378 185.906 310.993 183.712 309.716 182.434C308.438 181.156 306.244 179.772 303.294 179.772V197.821C300.373 197.821 298.209 196.452 296.953 195.197C295.698 193.941 294.329 191.776 294.329 188.856H312.378ZM303.294 179.772H301.9V197.821H303.294V179.772ZM301.9 179.772C298.95 179.772 296.756 181.156 295.478 182.434C294.2 183.712 292.816 185.906 292.816 188.856H310.865C310.865 191.776 309.496 193.941 308.241 195.197C306.985 196.452 304.82 197.821 301.9 197.821V179.772ZM292.816 188.856V198.226H310.865V188.856H292.816ZM292.816 198.226C292.816 201.176 294.2 203.37 295.478 204.648C296.756 205.926 298.95 207.31 301.9 207.31V189.261C304.82 189.261 306.985 190.63 308.241 191.886C309.496 193.141 310.865 195.306 310.865 198.226H292.816ZM301.9 207.31H303.294V189.261H301.9V207.31ZM303.294 207.31C306.244 207.31 308.438 205.926 309.716 204.648C310.993 203.37 312.378 201.176 312.378 198.226H294.329C294.329 195.306 295.698 193.141 296.953 191.885C298.209 190.63 300.373 189.261 303.294 189.261V207.31ZM306.437 193.975H298.757V212.025H306.437V193.975ZM298.757 193.975C298.783 193.975 299.104 193.975 299.613 194.103C300.133 194.234 300.982 194.533 301.887 195.217C302.843 195.939 303.627 196.915 304.125 198.047C304.6 199.125 304.698 200.068 304.698 200.658H286.649C286.649 203.615 287.757 207.163 291.008 209.619C293.78 211.713 296.86 212.025 298.757 212.025V193.975ZM304.698 200.658V186.454H286.649V200.658H304.698ZM304.698 186.454C304.698 187.017 304.607 187.926 304.156 188.972C303.683 190.071 302.93 191.045 301.985 191.779C301.085 192.478 300.228 192.795 299.682 192.937C299.15 193.075 298.805 193.077 298.757 193.077V175.028C296.801 175.028 293.687 175.369 290.911 177.527C287.707 180.016 286.649 183.55 286.649 186.454H304.698ZM298.757 193.077H306.437V175.028H298.757V193.077ZM306.437 193.077C306.389 193.077 306.044 193.075 305.512 192.937C304.966 192.795 304.109 192.478 303.209 191.779C302.264 191.045 301.511 190.071 301.038 188.972C300.587 187.926 300.496 187.017 300.496 186.454H318.545C318.545 183.55 317.486 180.016 314.283 177.527C311.506 175.369 308.393 175.028 306.437 175.028V193.077ZM300.496 186.454V200.658H318.545V186.454H300.496ZM300.496 200.658C300.496 200.068 300.593 199.125 301.069 198.047C301.567 196.915 302.351 195.939 303.306 195.217C304.212 194.533 305.061 194.234 305.581 194.103C306.09 193.975 306.411 193.975 306.437 193.975V212.025C308.333 212.025 311.414 211.713 314.186 209.619C317.437 207.163 318.545 203.615 318.545 200.658H300.496Z" fill="black" mask="url(#path-1-outside-1_1469_1844)"/>
</svg>
