<svg width="171" height="48" viewBox="0 0 171 48" fill="none" xmlns="http://www.w3.org/2000/svg">
<rect x="6" y="5" width="165" height="43" fill="#EC576D"/>
<rect width="165" height="43" fill="black"/>
<path d="M45.1875 17.625C44.8025 17.625 44.5 17.3225 44.5 16.9375C44.5 16.5525 44.8025 16.25 45.1875 16.25C45.5725 16.25 45.875 16.5525 45.875 16.9375C45.875 17.3225 45.5725 17.625 45.1875 17.625ZM43.8125 17.625C43.4275 17.625 43.125 17.3225 43.125 16.9375C43.125 16.5525 43.4275 16.25 43.8125 16.25C44.1975 16.25 44.5 16.5525 44.5 16.9375C44.5 17.3225 44.1975 17.625 43.8125 17.625ZM42.4375 17.625C42.0525 17.625 41.75 17.3225 41.75 16.9375C41.75 16.5525 42.0525 16.25 42.4375 16.25C42.8225 16.25 43.125 16.5525 43.125 16.9375C43.125 17.3225 42.8225 17.625 42.4375 17.625ZM41.0625 17.625C40.6775 17.625 40.375 17.3225 40.375 16.9375C40.375 16.5525 40.6775 16.25 41.0625 16.25C41.4475 16.25 41.75 16.5525 41.75 16.9375C41.75 17.3225 41.4475 17.625 41.0625 17.625ZM39.6875 17.625C39.3025 17.625 39 17.3225 39 16.9375C39 16.5525 39.3025 16.25 39.6875 16.25C40.0725 16.25 40.375 16.5525 40.375 16.9375C40.375 17.3225 40.0725 17.625 39.6875 17.625ZM46.5625 19C46.1775 19 45.875 18.6975 45.875 18.3125C45.875 17.9275 46.1775 17.625 46.5625 17.625C46.9475 17.625 47.25 17.9275 47.25 18.3125C47.25 18.6975 46.9475 19 46.5625 19ZM41.0625 19C40.6775 19 40.375 18.6975 40.375 18.3125C40.375 17.9275 40.6775 17.625 41.0625 17.625C41.4475 17.625 41.75 17.9275 41.75 18.3125C41.75 18.6975 41.4475 19 41.0625 19ZM39.6875 19C39.3025 19 39 18.6975 39 18.3125C39 17.9275 39.3025 17.625 39.6875 17.625C40.0725 17.625 40.375 17.9275 40.375 18.3125C40.375 18.6975 40.0725 19 39.6875 19ZM42.4375 19C42.0525 19 41.75 18.6975 41.75 18.3125C41.75 17.9275 42.0525 17.625 42.4375 17.625C42.8225 17.625 43.125 17.9275 43.125 18.3125C43.125 18.6975 42.8225 19 42.4375 19ZM45.1875 19C44.8025 19 44.5 18.6975 44.5 18.3125C44.5 17.9275 44.8025 17.625 45.1875 17.625C45.5725 17.625 45.875 17.9275 45.875 18.3125C45.875 18.6975 45.5725 19 45.1875 19ZM43.8125 19C43.4275 19 43.125 18.6975 43.125 18.3125C43.125 17.9275 43.4275 17.625 43.8125 17.625C44.1975 17.625 44.5 17.9275 44.5 18.3125C44.5 18.6975 44.1975 19 43.8125 19ZM41.0625 20.375C40.6775 20.375 40.375 20.0725 40.375 19.6875C40.375 19.3025 40.6775 19 41.0625 19C41.4475 19 41.75 19.3025 41.75 19.6875C41.75 20.0725 41.4475 20.375 41.0625 20.375ZM39.6875 20.375C39.3025 20.375 39 20.0725 39 19.6875C39 19.3025 39.3025 19 39.6875 19C40.0725 19 40.375 19.3025 40.375 19.6875C40.375 20.0725 40.0725 20.375 39.6875 20.375ZM46.5625 20.375C46.1775 20.375 45.875 20.0725 45.875 19.6875C45.875 19.3025 46.1775 19 46.5625 19C46.9475 19 47.25 19.3025 47.25 19.6875C47.25 20.0725 46.9475 20.375 46.5625 20.375ZM47.9375 20.375C47.5525 20.375 47.25 20.0725 47.25 19.6875C47.25 19.3025 47.5525 19 47.9375 19C48.3225 19 48.625 19.3025 48.625 19.6875C48.625 20.0725 48.3225 20.375 47.9375 20.375ZM39.6875 21.75C39.3025 21.75 39 21.4475 39 21.0625C39 20.6775 39.3025 20.375 39.6875 20.375C40.0725 20.375 40.375 20.6775 40.375 21.0625C40.375 21.4475 40.0725 21.75 39.6875 21.75ZM41.0625 21.75C40.6775 21.75 40.375 21.4475 40.375 21.0625C40.375 20.6775 40.6775 20.375 41.0625 20.375C41.4475 20.375 41.75 20.6775 41.75 21.0625C41.75 21.4475 41.4475 21.75 41.0625 21.75ZM46.5625 21.75C46.1775 21.75 45.875 21.4475 45.875 21.0625C45.875 20.6775 46.1775 20.375 46.5625 20.375C46.9475 20.375 47.25 20.6775 47.25 21.0625C47.25 21.4475 46.9475 21.75 46.5625 21.75ZM47.9375 21.75C47.5525 21.75 47.25 21.4475 47.25 21.0625C47.25 20.6775 47.5525 20.375 47.9375 20.375C48.3225 20.375 48.625 20.6775 48.625 21.0625C48.625 21.4475 48.3225 21.75 47.9375 21.75ZM41.0625 23.125C40.6775 23.125 40.375 22.8225 40.375 22.4375C40.375 22.0525 40.6775 21.75 41.0625 21.75C41.4475 21.75 41.75 22.0525 41.75 22.4375C41.75 22.8225 41.4475 23.125 41.0625 23.125ZM39.6875 23.125C39.3025 23.125 39 22.8225 39 22.4375C39 22.0525 39.3025 21.75 39.6875 21.75C40.0725 21.75 40.375 22.0525 40.375 22.4375C40.375 22.8225 40.0725 23.125 39.6875 23.125ZM46.5625 23.125C46.1775 23.125 45.875 22.8225 45.875 22.4375C45.875 22.0525 46.1775 21.75 46.5625 21.75C46.9475 21.75 47.25 22.0525 47.25 22.4375C47.25 22.8225 46.9475 23.125 46.5625 23.125ZM47.9375 23.125C47.5525 23.125 47.25 22.8225 47.25 22.4375C47.25 22.0525 47.5525 21.75 47.9375 21.75C48.3225 21.75 48.625 22.0525 48.625 22.4375C48.625 22.8225 48.3225 23.125 47.9375 23.125ZM41.0625 24.5C40.6775 24.5 40.375 24.1975 40.375 23.8125C40.375 23.4275 40.6775 23.125 41.0625 23.125C41.4475 23.125 41.75 23.4275 41.75 23.8125C41.75 24.1975 41.4475 24.5 41.0625 24.5ZM39.6875 24.5C39.3025 24.5 39 24.1975 39 23.8125C39 23.4275 39.3025 23.125 39.6875 23.125C40.0725 23.125 40.375 23.4275 40.375 23.8125C40.375 24.1975 40.0725 24.5 39.6875 24.5ZM42.4375 24.5C42.0525 24.5 41.75 24.1975 41.75 23.8125C41.75 23.4275 42.0525 23.125 42.4375 23.125C42.8225 23.125 43.125 23.4275 43.125 23.8125C43.125 24.1975 42.8225 24.5 42.4375 24.5ZM43.8125 24.5C43.4275 24.5 43.125 24.1975 43.125 23.8125C43.125 23.4275 43.4275 23.125 43.8125 23.125C44.1975 23.125 44.5 23.4275 44.5 23.8125C44.5 24.1975 44.1975 24.5 43.8125 24.5ZM46.5625 24.5C46.1775 24.5 45.875 24.1975 45.875 23.8125C45.875 23.4275 46.1775 23.125 46.5625 23.125C46.9475 23.125 47.25 23.4275 47.25 23.8125C47.25 24.1975 46.9475 24.5 46.5625 24.5ZM45.1875 24.5C44.8025 24.5 44.5 24.1975 44.5 23.8125C44.5 23.4275 44.8025 23.125 45.1875 23.125C45.5725 23.125 45.875 23.4275 45.875 23.8125C45.875 24.1975 45.5725 24.5 45.1875 24.5ZM42.4375 25.875C42.0525 25.875 41.75 25.5725 41.75 25.1875C41.75 24.8025 42.0525 24.5 42.4375 24.5C42.8225 24.5 43.125 24.8025 43.125 25.1875C43.125 25.5725 42.8225 25.875 42.4375 25.875ZM43.8125 25.875C43.4275 25.875 43.125 25.5725 43.125 25.1875C43.125 24.8025 43.4275 24.5 43.8125 24.5C44.1975 24.5 44.5 24.8025 44.5 25.1875C44.5 25.5725 44.1975 25.875 43.8125 25.875ZM45.1875 25.875C44.8025 25.875 44.5 25.5725 44.5 25.1875C44.5 24.8025 44.8025 24.5 45.1875 24.5C45.5725 24.5 45.875 24.8025 45.875 25.1875C45.875 25.5725 45.5725 25.875 45.1875 25.875ZM41.0625 25.875C40.6775 25.875 40.375 25.5725 40.375 25.1875C40.375 24.8025 40.6775 24.5 41.0625 24.5C41.4475 24.5 41.75 24.8025 41.75 25.1875C41.75 25.5725 41.4475 25.875 41.0625 25.875ZM39.6875 25.875C39.3025 25.875 39 25.5725 39 25.1875C39 24.8025 39.3025 24.5 39.6875 24.5C40.0725 24.5 40.375 24.8025 40.375 25.1875C40.375 25.5725 40.0725 25.875 39.6875 25.875ZM43.8125 27.25C43.4275 27.25 43.125 26.9475 43.125 26.5625C43.125 26.1775 43.4275 25.875 43.8125 25.875C44.1975 25.875 44.5 26.1775 44.5 26.5625C44.5 26.9475 44.1975 27.25 43.8125 27.25ZM45.1875 27.25C44.8025 27.25 44.5 26.9475 44.5 26.5625C44.5 26.1775 44.8025 25.875 45.1875 25.875C45.5725 25.875 45.875 26.1775 45.875 26.5625C45.875 26.9475 45.5725 27.25 45.1875 27.25ZM46.5625 27.25C46.1775 27.25 45.875 26.9475 45.875 26.5625C45.875 26.1775 46.1775 25.875 46.5625 25.875C46.9475 25.875 47.25 26.1775 47.25 26.5625C47.25 26.9475 46.9475 27.25 46.5625 27.25ZM39.6875 27.25C39.3025 27.25 39 26.9475 39 26.5625C39 26.1775 39.3025 25.875 39.6875 25.875C40.0725 25.875 40.375 26.1775 40.375 26.5625C40.375 26.9475 40.0725 27.25 39.6875 27.25ZM41.0625 27.25C40.6775 27.25 40.375 26.9475 40.375 26.5625C40.375 26.1775 40.6775 25.875 41.0625 25.875C41.4475 25.875 41.75 26.1775 41.75 26.5625C41.75 26.9475 41.4475 27.25 41.0625 27.25ZM45.1875 28.625C44.8025 28.625 44.5 28.3225 44.5 27.9375C44.5 27.5525 44.8025 27.25 45.1875 27.25C45.5725 27.25 45.875 27.5525 45.875 27.9375C45.875 28.3225 45.5725 28.625 45.1875 28.625ZM46.5625 28.625C46.1775 28.625 45.875 28.3225 45.875 27.9375C45.875 27.5525 46.1775 27.25 46.5625 27.25C46.9475 27.25 47.25 27.5525 47.25 27.9375C47.25 28.3225 46.9475 28.625 46.5625 28.625ZM47.9375 28.625C47.5525 28.625 47.25 28.3225 47.25 27.9375C47.25 27.5525 47.5525 27.25 47.9375 27.25C48.3225 27.25 48.625 27.5525 48.625 27.9375C48.625 28.3225 48.3225 28.625 47.9375 28.625ZM39.6875 28.625C39.3025 28.625 39 28.3225 39 27.9375C39 27.5525 39.3025 27.25 39.6875 27.25C40.0725 27.25 40.375 27.5525 40.375 27.9375C40.375 28.3225 40.0725 28.625 39.6875 28.625ZM41.0625 28.625C40.6775 28.625 40.375 28.3225 40.375 27.9375C40.375 27.5525 40.6775 27.25 41.0625 27.25C41.4475 27.25 41.75 27.5525 41.75 27.9375C41.75 28.3225 41.4475 28.625 41.0625 28.625ZM46.5625 30C46.1775 30 45.875 29.6975 45.875 29.3125C45.875 28.9275 46.1775 28.625 46.5625 28.625C46.9475 28.625 47.25 28.9275 47.25 29.3125C47.25 29.6975 46.9475 30 46.5625 30ZM47.9375 30C47.5525 30 47.25 29.6975 47.25 29.3125C47.25 28.9275 47.5525 28.625 47.9375 28.625C48.3225 28.625 48.625 28.9275 48.625 29.3125C48.625 29.6975 48.3225 30 47.9375 30ZM39.6875 30C39.3025 30 39 29.6975 39 29.3125C39 28.9275 39.3025 28.625 39.6875 28.625C40.0725 28.625 40.375 28.9275 40.375 29.3125C40.375 29.6975 40.0725 30 39.6875 30ZM41.0625 30C40.6775 30 40.375 29.6975 40.375 29.3125C40.375 28.9275 40.6775 28.625 41.0625 28.625C41.4475 28.625 41.75 28.9275 41.75 29.3125C41.75 29.6975 41.4475 30 41.0625 30ZM49.3125 30C48.9275 30 48.625 29.6975 48.625 29.3125C48.625 28.9275 48.9275 28.625 49.3125 28.625C49.6975 28.625 50 28.9275 50 29.3125C50 29.6975 49.6975 30 49.3125 30ZM54.0975 17.625C53.7125 17.625 53.41 17.3225 53.41 16.9375C53.41 16.5525 53.7125 16.25 54.0975 16.25C54.4825 16.25 54.785 16.5525 54.785 16.9375C54.785 17.3225 54.4825 17.625 54.0975 17.625ZM55.4725 17.625C55.0875 17.625 54.785 17.3225 54.785 16.9375C54.785 16.5525 55.0875 16.25 55.4725 16.25C55.8575 16.25 56.16 16.5525 56.16 16.9375C56.16 17.3225 55.8575 17.625 55.4725 17.625ZM56.8475 17.625C56.4625 17.625 56.16 17.3225 56.16 16.9375C56.16 16.5525 56.4625 16.25 56.8475 16.25C57.2325 16.25 57.535 16.5525 57.535 16.9375C57.535 17.3225 57.2325 17.625 56.8475 17.625ZM58.2225 17.625C57.8375 17.625 57.535 17.3225 57.535 16.9375C57.535 16.5525 57.8375 16.25 58.2225 16.25C58.6075 16.25 58.91 16.5525 58.91 16.9375C58.91 17.3225 58.6075 17.625 58.2225 17.625ZM52.7225 17.625C52.3375 17.625 52.035 17.3225 52.035 16.9375C52.035 16.5525 52.3375 16.25 52.7225 16.25C53.1075 16.25 53.41 16.5525 53.41 16.9375C53.41 17.3225 53.1075 17.625 52.7225 17.625ZM51.3475 17.625C50.9625 17.625 50.66 17.3225 50.66 16.9375C50.66 16.5525 50.9625 16.25 51.3475 16.25C51.7325 16.25 52.035 16.5525 52.035 16.9375C52.035 17.3225 51.7325 17.625 51.3475 17.625ZM56.8475 19C56.4625 19 56.16 18.6975 56.16 18.3125C56.16 17.9275 56.4625 17.625 56.8475 17.625C57.2325 17.625 57.535 17.9275 57.535 18.3125C57.535 18.6975 57.2325 19 56.8475 19ZM51.3475 19C50.9625 19 50.66 18.6975 50.66 18.3125C50.66 17.9275 50.9625 17.625 51.3475 17.625C51.7325 17.625 52.035 17.9275 52.035 18.3125C52.035 18.6975 51.7325 19 51.3475 19ZM58.2225 19C57.8375 19 57.535 18.6975 57.535 18.3125C57.535 17.9275 57.8375 17.625 58.2225 17.625C58.6075 17.625 58.91 17.9275 58.91 18.3125C58.91 18.6975 58.6075 19 58.2225 19ZM52.7225 19C52.3375 19 52.035 18.6975 52.035 18.3125C52.035 17.9275 52.3375 17.625 52.7225 17.625C53.1075 17.625 53.41 17.9275 53.41 18.3125C53.41 18.6975 53.1075 19 52.7225 19ZM54.0975 19C53.7125 19 53.41 18.6975 53.41 18.3125C53.41 17.9275 53.7125 17.625 54.0975 17.625C54.4825 17.625 54.785 17.9275 54.785 18.3125C54.785 18.6975 54.4825 19 54.0975 19ZM55.4725 19C55.0875 19 54.785 18.6975 54.785 18.3125C54.785 17.9275 55.0875 17.625 55.4725 17.625C55.8575 17.625 56.16 17.9275 56.16 18.3125C56.16 18.6975 55.8575 19 55.4725 19ZM52.7225 20.375C52.3375 20.375 52.035 20.0725 52.035 19.6875C52.035 19.3025 52.3375 19 52.7225 19C53.1075 19 53.41 19.3025 53.41 19.6875C53.41 20.0725 53.1075 20.375 52.7225 20.375ZM51.3475 20.375C50.9625 20.375 50.66 20.0725 50.66 19.6875C50.66 19.3025 50.9625 19 51.3475 19C51.7325 19 52.035 19.3025 52.035 19.6875C52.035 20.0725 51.7325 20.375 51.3475 20.375ZM51.3475 21.75C50.9625 21.75 50.66 21.4475 50.66 21.0625C50.66 20.6775 50.9625 20.375 51.3475 20.375C51.7325 20.375 52.035 20.6775 52.035 21.0625C52.035 21.4475 51.7325 21.75 51.3475 21.75ZM52.7225 21.75C52.3375 21.75 52.035 21.4475 52.035 21.0625C52.035 20.6775 52.3375 20.375 52.7225 20.375C53.1075 20.375 53.41 20.6775 53.41 21.0625C53.41 21.4475 53.1075 21.75 52.7225 21.75ZM58.2225 23.125C57.8375 23.125 57.535 22.8225 57.535 22.4375C57.535 22.0525 57.8375 21.75 58.2225 21.75C58.6075 21.75 58.91 22.0525 58.91 22.4375C58.91 22.8225 58.6075 23.125 58.2225 23.125ZM52.7225 23.125C52.3375 23.125 52.035 22.8225 52.035 22.4375C52.035 22.0525 52.3375 21.75 52.7225 21.75C53.1075 21.75 53.41 22.0525 53.41 22.4375C53.41 22.8225 53.1075 23.125 52.7225 23.125ZM54.0975 23.125C53.7125 23.125 53.41 22.8225 53.41 22.4375C53.41 22.0525 53.7125 21.75 54.0975 21.75C54.4825 21.75 54.785 22.0525 54.785 22.4375C54.785 22.8225 54.4825 23.125 54.0975 23.125ZM55.4725 23.125C55.0875 23.125 54.785 22.8225 54.785 22.4375C54.785 22.0525 55.0875 21.75 55.4725 21.75C55.8575 21.75 56.16 22.0525 56.16 22.4375C56.16 22.8225 55.8575 23.125 55.4725 23.125ZM56.8475 23.125C56.4625 23.125 56.16 22.8225 56.16 22.4375C56.16 22.0525 56.4625 21.75 56.8475 21.75C57.2325 21.75 57.535 22.0525 57.535 22.4375C57.535 22.8225 57.2325 23.125 56.8475 23.125ZM51.3475 23.125C50.9625 23.125 50.66 22.8225 50.66 22.4375C50.66 22.0525 50.9625 21.75 51.3475 21.75C51.7325 21.75 52.035 22.0525 52.035 22.4375C52.035 22.8225 51.7325 23.125 51.3475 23.125ZM58.2225 24.5C57.8375 24.5 57.535 24.1975 57.535 23.8125C57.535 23.4275 57.8375 23.125 58.2225 23.125C58.6075 23.125 58.91 23.4275 58.91 23.8125C58.91 24.1975 58.6075 24.5 58.2225 24.5ZM51.3475 24.5C50.9625 24.5 50.66 24.1975 50.66 23.8125C50.66 23.4275 50.9625 23.125 51.3475 23.125C51.7325 23.125 52.035 23.4275 52.035 23.8125C52.035 24.1975 51.7325 24.5 51.3475 24.5ZM56.8475 24.5C56.4625 24.5 56.16 24.1975 56.16 23.8125C56.16 23.4275 56.4625 23.125 56.8475 23.125C57.2325 23.125 57.535 23.4275 57.535 23.8125C57.535 24.1975 57.2325 24.5 56.8475 24.5ZM55.4725 24.5C55.0875 24.5 54.785 24.1975 54.785 23.8125C54.785 23.4275 55.0875 23.125 55.4725 23.125C55.8575 23.125 56.16 23.4275 56.16 23.8125C56.16 24.1975 55.8575 24.5 55.4725 24.5ZM54.0975 24.5C53.7125 24.5 53.41 24.1975 53.41 23.8125C53.41 23.4275 53.7125 23.125 54.0975 23.125C54.4825 23.125 54.785 23.4275 54.785 23.8125C54.785 24.1975 54.4825 24.5 54.0975 24.5ZM52.7225 24.5C52.3375 24.5 52.035 24.1975 52.035 23.8125C52.035 23.4275 52.3375 23.125 52.7225 23.125C53.1075 23.125 53.41 23.4275 53.41 23.8125C53.41 24.1975 53.1075 24.5 52.7225 24.5ZM51.3475 25.875C50.9625 25.875 50.66 25.5725 50.66 25.1875C50.66 24.8025 50.9625 24.5 51.3475 24.5C51.7325 24.5 52.035 24.8025 52.035 25.1875C52.035 25.5725 51.7325 25.875 51.3475 25.875ZM52.7225 25.875C52.3375 25.875 52.035 25.5725 52.035 25.1875C52.035 24.8025 52.3375 24.5 52.7225 24.5C53.1075 24.5 53.41 24.8025 53.41 25.1875C53.41 25.5725 53.1075 25.875 52.7225 25.875ZM51.3475 27.25C50.9625 27.25 50.66 26.9475 50.66 26.5625C50.66 26.1775 50.9625 25.875 51.3475 25.875C51.7325 25.875 52.035 26.1775 52.035 26.5625C52.035 26.9475 51.7325 27.25 51.3475 27.25ZM52.7225 27.25C52.3375 27.25 52.035 26.9475 52.035 26.5625C52.035 26.1775 52.3375 25.875 52.7225 25.875C53.1075 25.875 53.41 26.1775 53.41 26.5625C53.41 26.9475 53.1075 27.25 52.7225 27.25ZM52.7225 28.625C52.3375 28.625 52.035 28.3225 52.035 27.9375C52.035 27.5525 52.3375 27.25 52.7225 27.25C53.1075 27.25 53.41 27.5525 53.41 27.9375C53.41 28.3225 53.1075 28.625 52.7225 28.625ZM58.2225 28.625C57.8375 28.625 57.535 28.3225 57.535 27.9375C57.535 27.5525 57.8375 27.25 58.2225 27.25C58.6075 27.25 58.91 27.5525 58.91 27.9375C58.91 28.3225 58.6075 28.625 58.2225 28.625ZM56.8475 28.625C56.4625 28.625 56.16 28.3225 56.16 27.9375C56.16 27.5525 56.4625 27.25 56.8475 27.25C57.2325 27.25 57.535 27.5525 57.535 27.9375C57.535 28.3225 57.2325 28.625 56.8475 28.625ZM55.4725 28.625C55.0875 28.625 54.785 28.3225 54.785 27.9375C54.785 27.5525 55.0875 27.25 55.4725 27.25C55.8575 27.25 56.16 27.5525 56.16 27.9375C56.16 28.3225 55.8575 28.625 55.4725 28.625ZM54.0975 28.625C53.7125 28.625 53.41 28.3225 53.41 27.9375C53.41 27.5525 53.7125 27.25 54.0975 27.25C54.4825 27.25 54.785 27.5525 54.785 27.9375C54.785 28.3225 54.4825 28.625 54.0975 28.625ZM51.3475 28.625C50.9625 28.625 50.66 28.3225 50.66 27.9375C50.66 27.5525 50.9625 27.25 51.3475 27.25C51.7325 27.25 52.035 27.5525 52.035 27.9375C52.035 28.3225 51.7325 28.625 51.3475 28.625ZM52.7225 30C52.3375 30 52.035 29.6975 52.035 29.3125C52.035 28.9275 52.3375 28.625 52.7225 28.625C53.1075 28.625 53.41 28.9275 53.41 29.3125C53.41 29.6975 53.1075 30 52.7225 30ZM54.0975 30C53.7125 30 53.41 29.6975 53.41 29.3125C53.41 28.9275 53.7125 28.625 54.0975 28.625C54.4825 28.625 54.785 28.9275 54.785 29.3125C54.785 29.6975 54.4825 30 54.0975 30ZM55.4725 30C55.0875 30 54.785 29.6975 54.785 29.3125C54.785 28.9275 55.0875 28.625 55.4725 28.625C55.8575 28.625 56.16 28.9275 56.16 29.3125C56.16 29.6975 55.8575 30 55.4725 30ZM56.8475 30C56.4625 30 56.16 29.6975 56.16 29.3125C56.16 28.9275 56.4625 28.625 56.8475 28.625C57.2325 28.625 57.535 28.9275 57.535 29.3125C57.535 29.6975 57.2325 30 56.8475 30ZM58.2225 30C57.8375 30 57.535 29.6975 57.535 29.3125C57.535 28.9275 57.8375 28.625 58.2225 28.625C58.6075 28.625 58.91 28.9275 58.91 29.3125C58.91 29.6975 58.6075 30 58.2225 30ZM51.3475 30C50.9625 30 50.66 29.6975 50.66 29.3125C50.66 28.9275 50.9625 28.625 51.3475 28.625C51.7325 28.625 52.035 28.9275 52.035 29.3125C52.035 29.6975 51.7325 30 51.3475 30ZM67.1325 17.625C66.7475 17.625 66.445 17.3225 66.445 16.9375C66.445 16.5525 66.7475 16.25 67.1325 16.25C67.5175 16.25 67.82 16.5525 67.82 16.9375C67.82 17.3225 67.5175 17.625 67.1325 17.625ZM65.7575 17.625C65.3725 17.625 65.07 17.3225 65.07 16.9375C65.07 16.5525 65.3725 16.25 65.7575 16.25C66.1425 16.25 66.445 16.5525 66.445 16.9375C66.445 17.3225 66.1425 17.625 65.7575 17.625ZM68.5075 17.625C68.1225 17.625 67.82 17.3225 67.82 16.9375C67.82 16.5525 68.1225 16.25 68.5075 16.25C68.8925 16.25 69.195 16.5525 69.195 16.9375C69.195 17.3225 68.8925 17.625 68.5075 17.625ZM69.8825 17.625C69.4975 17.625 69.195 17.3225 69.195 16.9375C69.195 16.5525 69.4975 16.25 69.8825 16.25C70.2675 16.25 70.57 16.5525 70.57 16.9375C70.57 17.3225 70.2675 17.625 69.8825 17.625ZM64.3825 17.625C63.9975 17.625 63.695 17.3225 63.695 16.9375C63.695 16.5525 63.9975 16.25 64.3825 16.25C64.7675 16.25 65.07 16.5525 65.07 16.9375C65.07 17.3225 64.7675 17.625 64.3825 17.625ZM67.1325 19C66.7475 19 66.445 18.6975 66.445 18.3125C66.445 17.9275 66.7475 17.625 67.1325 17.625C67.5175 17.625 67.82 17.9275 67.82 18.3125C67.82 18.6975 67.5175 19 67.1325 19ZM63.0075 19C62.6225 19 62.32 18.6975 62.32 18.3125C62.32 17.9275 62.6225 17.625 63.0075 17.625C63.3925 17.625 63.695 17.9275 63.695 18.3125C63.695 18.6975 63.3925 19 63.0075 19ZM65.7575 19C65.3725 19 65.07 18.6975 65.07 18.3125C65.07 17.9275 65.3725 17.625 65.7575 17.625C66.1425 17.625 66.445 17.9275 66.445 18.3125C66.445 18.6975 66.1425 19 65.7575 19ZM71.2575 19C70.8725 19 70.57 18.6975 70.57 18.3125C70.57 17.9275 70.8725 17.625 71.2575 17.625C71.6425 17.625 71.945 17.9275 71.945 18.3125C71.945 18.6975 71.6425 19 71.2575 19ZM69.8825 19C69.4975 19 69.195 18.6975 69.195 18.3125C69.195 17.9275 69.4975 17.625 69.8825 17.625C70.2675 17.625 70.57 17.9275 70.57 18.3125C70.57 18.6975 70.2675 19 69.8825 19ZM68.5075 19C68.1225 19 67.82 18.6975 67.82 18.3125C67.82 17.9275 68.1225 17.625 68.5075 17.625C68.8925 17.625 69.195 17.9275 69.195 18.3125C69.195 18.6975 68.8925 19 68.5075 19ZM64.3825 19C63.9975 19 63.695 18.6975 63.695 18.3125C63.695 17.9275 63.9975 17.625 64.3825 17.625C64.7675 17.625 65.07 17.9275 65.07 18.3125C65.07 18.6975 64.7675 19 64.3825 19ZM64.3825 20.375C63.9975 20.375 63.695 20.0725 63.695 19.6875C63.695 19.3025 63.9975 19 64.3825 19C64.7675 19 65.07 19.3025 65.07 19.6875C65.07 20.0725 64.7675 20.375 64.3825 20.375ZM72.6325 20.375C72.2475 20.375 71.945 20.0725 71.945 19.6875C71.945 19.3025 72.2475 19 72.6325 19C73.0175 19 73.32 19.3025 73.32 19.6875C73.32 20.0725 73.0175 20.375 72.6325 20.375ZM61.6325 20.375C61.2475 20.375 60.945 20.0725 60.945 19.6875C60.945 19.3025 61.2475 19 61.6325 19C62.0175 19 62.32 19.3025 62.32 19.6875C62.32 20.0725 62.0175 20.375 61.6325 20.375ZM63.0075 20.375C62.6225 20.375 62.32 20.0725 62.32 19.6875C62.32 19.3025 62.6225 19 63.0075 19C63.3925 19 63.695 19.3025 63.695 19.6875C63.695 20.0725 63.3925 20.375 63.0075 20.375ZM71.2575 20.375C70.8725 20.375 70.57 20.0725 70.57 19.6875C70.57 19.3025 70.8725 19 71.2575 19C71.6425 19 71.945 19.3025 71.945 19.6875C71.945 20.0725 71.6425 20.375 71.2575 20.375ZM63.0075 21.75C62.6225 21.75 62.32 21.4475 62.32 21.0625C62.32 20.6775 62.6225 20.375 63.0075 20.375C63.3925 20.375 63.695 20.6775 63.695 21.0625C63.695 21.4475 63.3925 21.75 63.0075 21.75ZM61.6325 21.75C61.2475 21.75 60.945 21.4475 60.945 21.0625C60.945 20.6775 61.2475 20.375 61.6325 20.375C62.0175 20.375 62.32 20.6775 62.32 21.0625C62.32 21.4475 62.0175 21.75 61.6325 21.75ZM67.1325 23.125C66.7475 23.125 66.445 22.8225 66.445 22.4375C66.445 22.0525 66.7475 21.75 67.1325 21.75C67.5175 21.75 67.82 22.0525 67.82 22.4375C67.82 22.8225 67.5175 23.125 67.1325 23.125ZM68.5075 23.125C68.1225 23.125 67.82 22.8225 67.82 22.4375C67.82 22.0525 68.1225 21.75 68.5075 21.75C68.8925 21.75 69.195 22.0525 69.195 22.4375C69.195 22.8225 68.8925 23.125 68.5075 23.125ZM69.8825 23.125C69.4975 23.125 69.195 22.8225 69.195 22.4375C69.195 22.0525 69.4975 21.75 69.8825 21.75C70.2675 21.75 70.57 22.0525 70.57 22.4375C70.57 22.8225 70.2675 23.125 69.8825 23.125ZM71.2575 23.125C70.8725 23.125 70.57 22.8225 70.57 22.4375C70.57 22.0525 70.8725 21.75 71.2575 21.75C71.6425 21.75 71.945 22.0525 71.945 22.4375C71.945 22.8225 71.6425 23.125 71.2575 23.125ZM72.6325 23.125C72.2475 23.125 71.945 22.8225 71.945 22.4375C71.945 22.0525 72.2475 21.75 72.6325 21.75C73.0175 21.75 73.32 22.0525 73.32 22.4375C73.32 22.8225 73.0175 23.125 72.6325 23.125ZM63.0075 23.125C62.6225 23.125 62.32 22.8225 62.32 22.4375C62.32 22.0525 62.6225 21.75 63.0075 21.75C63.3925 21.75 63.695 22.0525 63.695 22.4375C63.695 22.8225 63.3925 23.125 63.0075 23.125ZM61.6325 23.125C61.2475 23.125 60.945 22.8225 60.945 22.4375C60.945 22.0525 61.2475 21.75 61.6325 21.75C62.0175 21.75 62.32 22.0525 62.32 22.4375C62.32 22.8225 62.0175 23.125 61.6325 23.125ZM61.6325 24.5C61.2475 24.5 60.945 24.1975 60.945 23.8125C60.945 23.4275 61.2475 23.125 61.6325 23.125C62.0175 23.125 62.32 23.4275 62.32 23.8125C62.32 24.1975 62.0175 24.5 61.6325 24.5ZM63.0075 24.5C62.6225 24.5 62.32 24.1975 62.32 23.8125C62.32 23.4275 62.6225 23.125 63.0075 23.125C63.3925 23.125 63.695 23.4275 63.695 23.8125C63.695 24.1975 63.3925 24.5 63.0075 24.5ZM69.8825 24.5C69.4975 24.5 69.195 24.1975 69.195 23.8125C69.195 23.4275 69.4975 23.125 69.8825 23.125C70.2675 23.125 70.57 23.4275 70.57 23.8125C70.57 24.1975 70.2675 24.5 69.8825 24.5ZM71.2575 24.5C70.8725 24.5 70.57 24.1975 70.57 23.8125C70.57 23.4275 70.8725 23.125 71.2575 23.125C71.6425 23.125 71.945 23.4275 71.945 23.8125C71.945 24.1975 71.6425 24.5 71.2575 24.5ZM68.5075 24.5C68.1225 24.5 67.82 24.1975 67.82 23.8125C67.82 23.4275 68.1225 23.125 68.5075 23.125C68.8925 23.125 69.195 23.4275 69.195 23.8125C69.195 24.1975 68.8925 24.5 68.5075 24.5ZM72.6325 24.5C72.2475 24.5 71.945 24.1975 71.945 23.8125C71.945 23.4275 72.2475 23.125 72.6325 23.125C73.0175 23.125 73.32 23.4275 73.32 23.8125C73.32 24.1975 73.0175 24.5 72.6325 24.5ZM67.1325 24.5C66.7475 24.5 66.445 24.1975 66.445 23.8125C66.445 23.4275 66.7475 23.125 67.1325 23.125C67.5175 23.125 67.82 23.4275 67.82 23.8125C67.82 24.1975 67.5175 24.5 67.1325 24.5ZM63.0075 25.875C62.6225 25.875 62.32 25.5725 62.32 25.1875C62.32 24.8025 62.6225 24.5 63.0075 24.5C63.3925 24.5 63.695 24.8025 63.695 25.1875C63.695 25.5725 63.3925 25.875 63.0075 25.875ZM72.6325 25.875C72.2475 25.875 71.945 25.5725 71.945 25.1875C71.945 24.8025 72.2475 24.5 72.6325 24.5C73.0175 24.5 73.32 24.8025 73.32 25.1875C73.32 25.5725 73.0175 25.875 72.6325 25.875ZM71.2575 25.875C70.8725 25.875 70.57 25.5725 70.57 25.1875C70.57 24.8025 70.8725 24.5 71.2575 24.5C71.6425 24.5 71.945 24.8025 71.945 25.1875C71.945 25.5725 71.6425 25.875 71.2575 25.875ZM61.6325 25.875C61.2475 25.875 60.945 25.5725 60.945 25.1875C60.945 24.8025 61.2475 24.5 61.6325 24.5C62.0175 24.5 62.32 24.8025 62.32 25.1875C62.32 25.5725 62.0175 25.875 61.6325 25.875ZM64.3825 27.25C63.9975 27.25 63.695 26.9475 63.695 26.5625C63.695 26.1775 63.9975 25.875 64.3825 25.875C64.7675 25.875 65.07 26.1775 65.07 26.5625C65.07 26.9475 64.7675 27.25 64.3825 27.25ZM72.6325 27.25C72.2475 27.25 71.945 26.9475 71.945 26.5625C71.945 26.1775 72.2475 25.875 72.6325 25.875C73.0175 25.875 73.32 26.1775 73.32 26.5625C73.32 26.9475 73.0175 27.25 72.6325 27.25ZM61.6325 27.25C61.2475 27.25 60.945 26.9475 60.945 26.5625C60.945 26.1775 61.2475 25.875 61.6325 25.875C62.0175 25.875 62.32 26.1775 62.32 26.5625C62.32 26.9475 62.0175 27.25 61.6325 27.25ZM71.2575 27.25C70.8725 27.25 70.57 26.9475 70.57 26.5625C70.57 26.1775 70.8725 25.875 71.2575 25.875C71.6425 25.875 71.945 26.1775 71.945 26.5625C71.945 26.9475 71.6425 27.25 71.2575 27.25ZM63.0075 27.25C62.6225 27.25 62.32 26.9475 62.32 26.5625C62.32 26.1775 62.6225 25.875 63.0075 25.875C63.3925 25.875 63.695 26.1775 63.695 26.5625C63.695 26.9475 63.3925 27.25 63.0075 27.25ZM69.8825 27.25C69.4975 27.25 69.195 26.9475 69.195 26.5625C69.195 26.1775 69.4975 25.875 69.8825 25.875C70.2675 25.875 70.57 26.1775 70.57 26.5625C70.57 26.9475 70.2675 27.25 69.8825 27.25ZM64.3825 28.625C63.9975 28.625 63.695 28.3225 63.695 27.9375C63.695 27.5525 63.9975 27.25 64.3825 27.25C64.7675 27.25 65.07 27.5525 65.07 27.9375C65.07 28.3225 64.7675 28.625 64.3825 28.625ZM68.5075 28.625C68.1225 28.625 67.82 28.3225 67.82 27.9375C67.82 27.5525 68.1225 27.25 68.5075 27.25C68.8925 27.25 69.195 27.5525 69.195 27.9375C69.195 28.3225 68.8925 28.625 68.5075 28.625ZM69.8825 28.625C69.4975 28.625 69.195 28.3225 69.195 27.9375C69.195 27.5525 69.4975 27.25 69.8825 27.25C70.2675 27.25 70.57 27.5525 70.57 27.9375C70.57 28.3225 70.2675 28.625 69.8825 28.625ZM72.6325 28.625C72.2475 28.625 71.945 28.3225 71.945 27.9375C71.945 27.5525 72.2475 27.25 72.6325 27.25C73.0175 27.25 73.32 27.5525 73.32 27.9375C73.32 28.3225 73.0175 28.625 72.6325 28.625ZM65.7575 28.625C65.3725 28.625 65.07 28.3225 65.07 27.9375C65.07 27.5525 65.3725 27.25 65.7575 27.25C66.1425 27.25 66.445 27.5525 66.445 27.9375C66.445 28.3225 66.1425 28.625 65.7575 28.625ZM71.2575 28.625C70.8725 28.625 70.57 28.3225 70.57 27.9375C70.57 27.5525 70.8725 27.25 71.2575 27.25C71.6425 27.25 71.945 27.5525 71.945 27.9375C71.945 28.3225 71.6425 28.625 71.2575 28.625ZM67.1325 28.625C66.7475 28.625 66.445 28.3225 66.445 27.9375C66.445 27.5525 66.7475 27.25 67.1325 27.25C67.5175 27.25 67.82 27.5525 67.82 27.9375C67.82 28.3225 67.5175 28.625 67.1325 28.625ZM63.0075 28.625C62.6225 28.625 62.32 28.3225 62.32 27.9375C62.32 27.5525 62.6225 27.25 63.0075 27.25C63.3925 27.25 63.695 27.5525 63.695 27.9375C63.695 28.3225 63.3925 28.625 63.0075 28.625ZM72.6325 30C72.2475 30 71.945 29.6975 71.945 29.3125C71.945 28.9275 72.2475 28.625 72.6325 28.625C73.0175 28.625 73.32 28.9275 73.32 29.3125C73.32 29.6975 73.0175 30 72.6325 30ZM64.3825 30C63.9975 30 63.695 29.6975 63.695 29.3125C63.695 28.9275 63.9975 28.625 64.3825 28.625C64.7675 28.625 65.07 28.9275 65.07 29.3125C65.07 29.6975 64.7675 30 64.3825 30ZM65.7575 30C65.3725 30 65.07 29.6975 65.07 29.3125C65.07 28.9275 65.3725 28.625 65.7575 28.625C66.1425 28.625 66.445 28.9275 66.445 29.3125C66.445 29.6975 66.1425 30 65.7575 30ZM68.5075 30C68.1225 30 67.82 29.6975 67.82 29.3125C67.82 28.9275 68.1225 28.625 68.5075 28.625C68.8925 28.625 69.195 28.9275 69.195 29.3125C69.195 29.6975 68.8925 30 68.5075 30ZM69.8825 30C69.4975 30 69.195 29.6975 69.195 29.3125C69.195 28.9275 69.4975 28.625 69.8825 28.625C70.2675 28.625 70.57 28.9275 70.57 29.3125C70.57 29.6975 70.2675 30 69.8825 30ZM67.1325 30C66.7475 30 66.445 29.6975 66.445 29.3125C66.445 28.9275 66.7475 28.625 67.1325 28.625C67.5175 28.625 67.82 28.9275 67.82 29.3125C67.82 29.6975 67.5175 30 67.1325 30ZM76.0425 17.625C75.6575 17.625 75.355 17.3225 75.355 16.9375C75.355 16.5525 75.6575 16.25 76.0425 16.25C76.4275 16.25 76.73 16.5525 76.73 16.9375C76.73 17.3225 76.4275 17.625 76.0425 17.625ZM77.4175 17.625C77.0325 17.625 76.73 17.3225 76.73 16.9375C76.73 16.5525 77.0325 16.25 77.4175 16.25C77.8025 16.25 78.105 16.5525 78.105 16.9375C78.105 17.3225 77.8025 17.625 77.4175 17.625ZM77.4175 19C77.0325 19 76.73 18.6975 76.73 18.3125C76.73 17.9275 77.0325 17.625 77.4175 17.625C77.8025 17.625 78.105 17.9275 78.105 18.3125C78.105 18.6975 77.8025 19 77.4175 19ZM76.0425 19C75.6575 19 75.355 18.6975 75.355 18.3125C75.355 17.9275 75.6575 17.625 76.0425 17.625C76.4275 17.625 76.73 17.9275 76.73 18.3125C76.73 18.6975 76.4275 19 76.0425 19ZM77.4175 20.375C77.0325 20.375 76.73 20.0725 76.73 19.6875C76.73 19.3025 77.0325 19 77.4175 19C77.8025 19 78.105 19.3025 78.105 19.6875C78.105 20.0725 77.8025 20.375 77.4175 20.375ZM76.0425 20.375C75.6575 20.375 75.355 20.0725 75.355 19.6875C75.355 19.3025 75.6575 19 76.0425 19C76.4275 19 76.73 19.3025 76.73 19.6875C76.73 20.0725 76.4275 20.375 76.0425 20.375ZM76.0425 21.75C75.6575 21.75 75.355 21.4475 75.355 21.0625C75.355 20.6775 75.6575 20.375 76.0425 20.375C76.4275 20.375 76.73 20.6775 76.73 21.0625C76.73 21.4475 76.4275 21.75 76.0425 21.75ZM77.4175 21.75C77.0325 21.75 76.73 21.4475 76.73 21.0625C76.73 20.6775 77.0325 20.375 77.4175 20.375C77.8025 20.375 78.105 20.6775 78.105 21.0625C78.105 21.4475 77.8025 21.75 77.4175 21.75ZM77.4175 23.125C77.0325 23.125 76.73 22.8225 76.73 22.4375C76.73 22.0525 77.0325 21.75 77.4175 21.75C77.8025 21.75 78.105 22.0525 78.105 22.4375C78.105 22.8225 77.8025 23.125 77.4175 23.125ZM76.0425 23.125C75.6575 23.125 75.355 22.8225 75.355 22.4375C75.355 22.0525 75.6575 21.75 76.0425 21.75C76.4275 21.75 76.73 22.0525 76.73 22.4375C76.73 22.8225 76.4275 23.125 76.0425 23.125ZM77.4175 24.5C77.0325 24.5 76.73 24.1975 76.73 23.8125C76.73 23.4275 77.0325 23.125 77.4175 23.125C77.8025 23.125 78.105 23.4275 78.105 23.8125C78.105 24.1975 77.8025 24.5 77.4175 24.5ZM76.0425 24.5C75.6575 24.5 75.355 24.1975 75.355 23.8125C75.355 23.4275 75.6575 23.125 76.0425 23.125C76.4275 23.125 76.73 23.4275 76.73 23.8125C76.73 24.1975 76.4275 24.5 76.0425 24.5ZM76.0425 25.875C75.6575 25.875 75.355 25.5725 75.355 25.1875C75.355 24.8025 75.6575 24.5 76.0425 24.5C76.4275 24.5 76.73 24.8025 76.73 25.1875C76.73 25.5725 76.4275 25.875 76.0425 25.875ZM77.4175 25.875C77.0325 25.875 76.73 25.5725 76.73 25.1875C76.73 24.8025 77.0325 24.5 77.4175 24.5C77.8025 24.5 78.105 24.8025 78.105 25.1875C78.105 25.5725 77.8025 25.875 77.4175 25.875ZM77.4175 27.25C77.0325 27.25 76.73 26.9475 76.73 26.5625C76.73 26.1775 77.0325 25.875 77.4175 25.875C77.8025 25.875 78.105 26.1775 78.105 26.5625C78.105 26.9475 77.8025 27.25 77.4175 27.25ZM76.0425 27.25C75.6575 27.25 75.355 26.9475 75.355 26.5625C75.355 26.1775 75.6575 25.875 76.0425 25.875C76.4275 25.875 76.73 26.1775 76.73 26.5625C76.73 26.9475 76.4275 27.25 76.0425 27.25ZM77.4175 28.625C77.0325 28.625 76.73 28.3225 76.73 27.9375C76.73 27.5525 77.0325 27.25 77.4175 27.25C77.8025 27.25 78.105 27.5525 78.105 27.9375C78.105 28.3225 77.8025 28.625 77.4175 28.625ZM76.0425 28.625C75.6575 28.625 75.355 28.3225 75.355 27.9375C75.355 27.5525 75.6575 27.25 76.0425 27.25C76.4275 27.25 76.73 27.5525 76.73 27.9375C76.73 28.3225 76.4275 28.625 76.0425 28.625ZM77.4175 30C77.0325 30 76.73 29.6975 76.73 29.3125C76.73 28.9275 77.0325 28.625 77.4175 28.625C77.8025 28.625 78.105 28.9275 78.105 29.3125C78.105 29.6975 77.8025 30 77.4175 30ZM76.0425 30C75.6575 30 75.355 29.6975 75.355 29.3125C75.355 28.9275 75.6575 28.625 76.0425 28.625C76.4275 28.625 76.73 28.9275 76.73 29.3125C76.73 29.6975 76.4275 30 76.0425 30ZM87.7025 17.625C87.3175 17.625 87.015 17.3225 87.015 16.9375C87.015 16.5525 87.3175 16.25 87.7025 16.25C88.0875 16.25 88.39 16.5525 88.39 16.9375C88.39 17.3225 88.0875 17.625 87.7025 17.625ZM83.5775 17.625C83.1925 17.625 82.89 17.3225 82.89 16.9375C82.89 16.5525 83.1925 16.25 83.5775 16.25C83.9625 16.25 84.265 16.5525 84.265 16.9375C84.265 17.3225 83.9625 17.625 83.5775 17.625ZM84.9525 17.625C84.5675 17.625 84.265 17.3225 84.265 16.9375C84.265 16.5525 84.5675 16.25 84.9525 16.25C85.3375 16.25 85.64 16.5525 85.64 16.9375C85.64 17.3225 85.3375 17.625 84.9525 17.625ZM86.3275 17.625C85.9425 17.625 85.64 17.3225 85.64 16.9375C85.64 16.5525 85.9425 16.25 86.3275 16.25C86.7125 16.25 87.015 16.5525 87.015 16.9375C87.015 17.3225 86.7125 17.625 86.3275 17.625ZM82.2025 17.625C81.8175 17.625 81.515 17.3225 81.515 16.9375C81.515 16.5525 81.8175 16.25 82.2025 16.25C82.5875 16.25 82.89 16.5525 82.89 16.9375C82.89 17.3225 82.5875 17.625 82.2025 17.625ZM89.0775 19C88.6925 19 88.39 18.6975 88.39 18.3125C88.39 17.9275 88.6925 17.625 89.0775 17.625C89.4625 17.625 89.765 17.9275 89.765 18.3125C89.765 18.6975 89.4625 19 89.0775 19ZM84.9525 19C84.5675 19 84.265 18.6975 84.265 18.3125C84.265 17.9275 84.5675 17.625 84.9525 17.625C85.3375 17.625 85.64 17.9275 85.64 18.3125C85.64 18.6975 85.3375 19 84.9525 19ZM83.5775 19C83.1925 19 82.89 18.6975 82.89 18.3125C82.89 17.9275 83.1925 17.625 83.5775 17.625C83.9625 17.625 84.265 17.9275 84.265 18.3125C84.265 18.6975 83.9625 19 83.5775 19ZM82.2025 19C81.8175 19 81.515 18.6975 81.515 18.3125C81.515 17.9275 81.8175 17.625 82.2025 17.625C82.5875 17.625 82.89 17.9275 82.89 18.3125C82.89 18.6975 82.5875 19 82.2025 19ZM80.8275 19C80.4425 19 80.14 18.6975 80.14 18.3125C80.14 17.9275 80.4425 17.625 80.8275 17.625C81.2125 17.625 81.515 17.9275 81.515 18.3125C81.515 18.6975 81.2125 19 80.8275 19ZM86.3275 19C85.9425 19 85.64 18.6975 85.64 18.3125C85.64 17.9275 85.9425 17.625 86.3275 17.625C86.7125 17.625 87.015 17.9275 87.015 18.3125C87.015 18.6975 86.7125 19 86.3275 19ZM87.7025 19C87.3175 19 87.015 18.6975 87.015 18.3125C87.015 17.9275 87.3175 17.625 87.7025 17.625C88.0875 17.625 88.39 17.9275 88.39 18.3125C88.39 18.6975 88.0875 19 87.7025 19ZM87.7025 20.375C87.3175 20.375 87.015 20.0725 87.015 19.6875C87.015 19.3025 87.3175 19 87.7025 19C88.0875 19 88.39 19.3025 88.39 19.6875C88.39 20.0725 88.0875 20.375 87.7025 20.375ZM82.2025 20.375C81.8175 20.375 81.515 20.0725 81.515 19.6875C81.515 19.3025 81.8175 19 82.2025 19C82.5875 19 82.89 19.3025 82.89 19.6875C82.89 20.0725 82.5875 20.375 82.2025 20.375ZM89.0775 20.375C88.6925 20.375 88.39 20.0725 88.39 19.6875C88.39 19.3025 88.6925 19 89.0775 19C89.4625 19 89.765 19.3025 89.765 19.6875C89.765 20.0725 89.4625 20.375 89.0775 20.375ZM80.8275 20.375C80.4425 20.375 80.14 20.0725 80.14 19.6875C80.14 19.3025 80.4425 19 80.8275 19C81.2125 19 81.515 19.3025 81.515 19.6875C81.515 20.0725 81.2125 20.375 80.8275 20.375ZM83.5775 21.75C83.1925 21.75 82.89 21.4475 82.89 21.0625C82.89 20.6775 83.1925 20.375 83.5775 20.375C83.9625 20.375 84.265 20.6775 84.265 21.0625C84.265 21.4475 83.9625 21.75 83.5775 21.75ZM82.2025 21.75C81.8175 21.75 81.515 21.4475 81.515 21.0625C81.515 20.6775 81.8175 20.375 82.2025 20.375C82.5875 20.375 82.89 20.6775 82.89 21.0625C82.89 21.4475 82.5875 21.75 82.2025 21.75ZM80.8275 21.75C80.4425 21.75 80.14 21.4475 80.14 21.0625C80.14 20.6775 80.4425 20.375 80.8275 20.375C81.2125 20.375 81.515 20.6775 81.515 21.0625C81.515 21.4475 81.2125 21.75 80.8275 21.75ZM86.3275 23.125C85.9425 23.125 85.64 22.8225 85.64 22.4375C85.64 22.0525 85.9425 21.75 86.3275 21.75C86.7125 21.75 87.015 22.0525 87.015 22.4375C87.015 22.8225 86.7125 23.125 86.3275 23.125ZM82.2025 23.125C81.8175 23.125 81.515 22.8225 81.515 22.4375C81.515 22.0525 81.8175 21.75 82.2025 21.75C82.5875 21.75 82.89 22.0525 82.89 22.4375C82.89 22.8225 82.5875 23.125 82.2025 23.125ZM83.5775 23.125C83.1925 23.125 82.89 22.8225 82.89 22.4375C82.89 22.0525 83.1925 21.75 83.5775 21.75C83.9625 21.75 84.265 22.0525 84.265 22.4375C84.265 22.8225 83.9625 23.125 83.5775 23.125ZM84.9525 23.125C84.5675 23.125 84.265 22.8225 84.265 22.4375C84.265 22.0525 84.5675 21.75 84.9525 21.75C85.3375 21.75 85.64 22.0525 85.64 22.4375C85.64 22.8225 85.3375 23.125 84.9525 23.125ZM87.7025 24.5C87.3175 24.5 87.015 24.1975 87.015 23.8125C87.015 23.4275 87.3175 23.125 87.7025 23.125C88.0875 23.125 88.39 23.4275 88.39 23.8125C88.39 24.1975 88.0875 24.5 87.7025 24.5ZM83.5775 24.5C83.1925 24.5 82.89 24.1975 82.89 23.8125C82.89 23.4275 83.1925 23.125 83.5775 23.125C83.9625 23.125 84.265 23.4275 84.265 23.8125C84.265 24.1975 83.9625 24.5 83.5775 24.5ZM86.3275 24.5C85.9425 24.5 85.64 24.1975 85.64 23.8125C85.64 23.4275 85.9425 23.125 86.3275 23.125C86.7125 23.125 87.015 23.4275 87.015 23.8125C87.015 24.1975 86.7125 24.5 86.3275 24.5ZM84.9525 24.5C84.5675 24.5 84.265 24.1975 84.265 23.8125C84.265 23.4275 84.5675 23.125 84.9525 23.125C85.3375 23.125 85.64 23.4275 85.64 23.8125C85.64 24.1975 85.3375 24.5 84.9525 24.5ZM87.7025 25.875C87.3175 25.875 87.015 25.5725 87.015 25.1875C87.015 24.8025 87.3175 24.5 87.7025 24.5C88.0875 24.5 88.39 24.8025 88.39 25.1875C88.39 25.5725 88.0875 25.875 87.7025 25.875ZM86.3275 25.875C85.9425 25.875 85.64 25.5725 85.64 25.1875C85.64 24.8025 85.9425 24.5 86.3275 24.5C86.7125 24.5 87.015 24.8025 87.015 25.1875C87.015 25.5725 86.7125 25.875 86.3275 25.875ZM89.0775 25.875C88.6925 25.875 88.39 25.5725 88.39 25.1875C88.39 24.8025 88.6925 24.5 89.0775 24.5C89.4625 24.5 89.765 24.8025 89.765 25.1875C89.765 25.5725 89.4625 25.875 89.0775 25.875ZM87.7025 27.25C87.3175 27.25 87.015 26.9475 87.015 26.5625C87.015 26.1775 87.3175 25.875 87.7025 25.875C88.0875 25.875 88.39 26.1775 88.39 26.5625C88.39 26.9475 88.0875 27.25 87.7025 27.25ZM89.0775 27.25C88.6925 27.25 88.39 26.9475 88.39 26.5625C88.39 26.1775 88.6925 25.875 89.0775 25.875C89.4625 25.875 89.765 26.1775 89.765 26.5625C89.765 26.9475 89.4625 27.25 89.0775 27.25ZM80.8275 27.25C80.4425 27.25 80.14 26.9475 80.14 26.5625C80.14 26.1775 80.4425 25.875 80.8275 25.875C81.2125 25.875 81.515 26.1775 81.515 26.5625C81.515 26.9475 81.2125 27.25 80.8275 27.25ZM82.2025 27.25C81.8175 27.25 81.515 26.9475 81.515 26.5625C81.515 26.1775 81.8175 25.875 82.2025 25.875C82.5875 25.875 82.89 26.1775 82.89 26.5625C82.89 26.9475 82.5875 27.25 82.2025 27.25ZM83.5775 28.625C83.1925 28.625 82.89 28.3225 82.89 27.9375C82.89 27.5525 83.1925 27.25 83.5775 27.25C83.9625 27.25 84.265 27.5525 84.265 27.9375C84.265 28.3225 83.9625 28.625 83.5775 28.625ZM89.0775 28.625C88.6925 28.625 88.39 28.3225 88.39 27.9375C88.39 27.5525 88.6925 27.25 89.0775 27.25C89.4625 27.25 89.765 27.5525 89.765 27.9375C89.765 28.3225 89.4625 28.625 89.0775 28.625ZM87.7025 28.625C87.3175 28.625 87.015 28.3225 87.015 27.9375C87.015 27.5525 87.3175 27.25 87.7025 27.25C88.0875 27.25 88.39 27.5525 88.39 27.9375C88.39 28.3225 88.0875 28.625 87.7025 28.625ZM86.3275 28.625C85.9425 28.625 85.64 28.3225 85.64 27.9375C85.64 27.5525 85.9425 27.25 86.3275 27.25C86.7125 27.25 87.015 27.5525 87.015 27.9375C87.015 28.3225 86.7125 28.625 86.3275 28.625ZM82.2025 28.625C81.8175 28.625 81.515 28.3225 81.515 27.9375C81.515 27.5525 81.8175 27.25 82.2025 27.25C82.5875 27.25 82.89 27.5525 82.89 27.9375C82.89 28.3225 82.5875 28.625 82.2025 28.625ZM80.8275 28.625C80.4425 28.625 80.14 28.3225 80.14 27.9375C80.14 27.5525 80.4425 27.25 80.8275 27.25C81.2125 27.25 81.515 27.5525 81.515 27.9375C81.515 28.3225 81.2125 28.625 80.8275 28.625ZM84.9525 28.625C84.5675 28.625 84.265 28.3225 84.265 27.9375C84.265 27.5525 84.5675 27.25 84.9525 27.25C85.3375 27.25 85.64 27.5525 85.64 27.9375C85.64 28.3225 85.3375 28.625 84.9525 28.625ZM83.5775 30C83.1925 30 82.89 29.6975 82.89 29.3125C82.89 28.9275 83.1925 28.625 83.5775 28.625C83.9625 28.625 84.265 28.9275 84.265 29.3125C84.265 29.6975 83.9625 30 83.5775 30ZM86.3275 30C85.9425 30 85.64 29.6975 85.64 29.3125C85.64 28.9275 85.9425 28.625 86.3275 28.625C86.7125 28.625 87.015 28.9275 87.015 29.3125C87.015 29.6975 86.7125 30 86.3275 30ZM82.2025 30C81.8175 30 81.515 29.6975 81.515 29.3125C81.515 28.9275 81.8175 28.625 82.2025 28.625C82.5875 28.625 82.89 28.9275 82.89 29.3125C82.89 29.6975 82.5875 30 82.2025 30ZM84.9525 30C84.5675 30 84.265 29.6975 84.265 29.3125C84.265 28.9275 84.5675 28.625 84.9525 28.625C85.3375 28.625 85.64 28.9275 85.64 29.3125C85.64 29.6975 85.3375 30 84.9525 30ZM87.7025 30C87.3175 30 87.015 29.6975 87.015 29.3125C87.015 28.9275 87.3175 28.625 87.7025 28.625C88.0875 28.625 88.39 28.9275 88.39 29.3125C88.39 29.6975 88.0875 30 87.7025 30ZM93.8625 17.625C93.4775 17.625 93.175 17.3225 93.175 16.9375C93.175 16.5525 93.4775 16.25 93.8625 16.25C94.2475 16.25 94.55 16.5525 94.55 16.9375C94.55 17.3225 94.2475 17.625 93.8625 17.625ZM92.4875 17.625C92.1025 17.625 91.8 17.3225 91.8 16.9375C91.8 16.5525 92.1025 16.25 92.4875 16.25C92.8725 16.25 93.175 16.5525 93.175 16.9375C93.175 17.3225 92.8725 17.625 92.4875 17.625ZM95.2375 17.625C94.8525 17.625 94.55 17.3225 94.55 16.9375C94.55 16.5525 94.8525 16.25 95.2375 16.25C95.6225 16.25 95.925 16.5525 95.925 16.9375C95.925 17.3225 95.6225 17.625 95.2375 17.625ZM100.737 17.625C100.352 17.625 100.05 17.3225 100.05 16.9375C100.05 16.5525 100.352 16.25 100.737 16.25C101.122 16.25 101.425 16.5525 101.425 16.9375C101.425 17.3225 101.122 17.625 100.737 17.625ZM102.112 17.625C101.727 17.625 101.425 17.3225 101.425 16.9375C101.425 16.5525 101.727 16.25 102.112 16.25C102.497 16.25 102.8 16.5525 102.8 16.9375C102.8 17.3225 102.497 17.625 102.112 17.625ZM96.6125 17.625C96.2275 17.625 95.925 17.3225 95.925 16.9375C95.925 16.5525 96.2275 16.25 96.6125 16.25C96.9975 16.25 97.3 16.5525 97.3 16.9375C97.3 17.3225 96.9975 17.625 96.6125 17.625ZM97.9875 17.625C97.6025 17.625 97.3 17.3225 97.3 16.9375C97.3 16.5525 97.6025 16.25 97.9875 16.25C98.3725 16.25 98.675 16.5525 98.675 16.9375C98.675 17.3225 98.3725 17.625 97.9875 17.625ZM99.3625 17.625C98.9775 17.625 98.675 17.3225 98.675 16.9375C98.675 16.5525 98.9775 16.25 99.3625 16.25C99.7475 16.25 100.05 16.5525 100.05 16.9375C100.05 17.3225 99.7475 17.625 99.3625 17.625ZM92.4875 19C92.1025 19 91.8 18.6975 91.8 18.3125C91.8 17.9275 92.1025 17.625 92.4875 17.625C92.8725 17.625 93.175 17.9275 93.175 18.3125C93.175 18.6975 92.8725 19 92.4875 19ZM93.8625 19C93.4775 19 93.175 18.6975 93.175 18.3125C93.175 17.9275 93.4775 17.625 93.8625 17.625C94.2475 17.625 94.55 17.9275 94.55 18.3125C94.55 18.6975 94.2475 19 93.8625 19ZM95.2375 19C94.8525 19 94.55 18.6975 94.55 18.3125C94.55 17.9275 94.8525 17.625 95.2375 17.625C95.6225 17.625 95.925 17.9275 95.925 18.3125C95.925 18.6975 95.6225 19 95.2375 19ZM102.112 19C101.727 19 101.425 18.6975 101.425 18.3125C101.425 17.9275 101.727 17.625 102.112 17.625C102.497 17.625 102.8 17.9275 102.8 18.3125C102.8 18.6975 102.497 19 102.112 19ZM100.737 19C100.352 19 100.05 18.6975 100.05 18.3125C100.05 17.9275 100.352 17.625 100.737 17.625C101.122 17.625 101.425 17.9275 101.425 18.3125C101.425 18.6975 101.122 19 100.737 19ZM97.9875 19C97.6025 19 97.3 18.6975 97.3 18.3125C97.3 17.9275 97.6025 17.625 97.9875 17.625C98.3725 17.625 98.675 17.9275 98.675 18.3125C98.675 18.6975 98.3725 19 97.9875 19ZM96.6125 19C96.2275 19 95.925 18.6975 95.925 18.3125C95.925 17.9275 96.2275 17.625 96.6125 17.625C96.9975 17.625 97.3 17.9275 97.3 18.3125C97.3 18.6975 96.9975 19 96.6125 19ZM99.3625 19C98.9775 19 98.675 18.6975 98.675 18.3125C98.675 17.9275 98.9775 17.625 99.3625 17.625C99.7475 17.625 100.05 17.9275 100.05 18.3125C100.05 18.6975 99.7475 19 99.3625 19ZM96.6125 20.375C96.2275 20.375 95.925 20.0725 95.925 19.6875C95.925 19.3025 96.2275 19 96.6125 19C96.9975 19 97.3 19.3025 97.3 19.6875C97.3 20.0725 96.9975 20.375 96.6125 20.375ZM97.9875 20.375C97.6025 20.375 97.3 20.0725 97.3 19.6875C97.3 19.3025 97.6025 19 97.9875 19C98.3725 19 98.675 19.3025 98.675 19.6875C98.675 20.0725 98.3725 20.375 97.9875 20.375ZM97.9875 21.75C97.6025 21.75 97.3 21.4475 97.3 21.0625C97.3 20.6775 97.6025 20.375 97.9875 20.375C98.3725 20.375 98.675 20.6775 98.675 21.0625C98.675 21.4475 98.3725 21.75 97.9875 21.75ZM96.6125 21.75C96.2275 21.75 95.925 21.4475 95.925 21.0625C95.925 20.6775 96.2275 20.375 96.6125 20.375C96.9975 20.375 97.3 20.6775 97.3 21.0625C97.3 21.4475 96.9975 21.75 96.6125 21.75ZM96.6125 23.125C96.2275 23.125 95.925 22.8225 95.925 22.4375C95.925 22.0525 96.2275 21.75 96.6125 21.75C96.9975 21.75 97.3 22.0525 97.3 22.4375C97.3 22.8225 96.9975 23.125 96.6125 23.125ZM97.9875 23.125C97.6025 23.125 97.3 22.8225 97.3 22.4375C97.3 22.0525 97.6025 21.75 97.9875 21.75C98.3725 21.75 98.675 22.0525 98.675 22.4375C98.675 22.8225 98.3725 23.125 97.9875 23.125ZM97.9875 24.5C97.6025 24.5 97.3 24.1975 97.3 23.8125C97.3 23.4275 97.6025 23.125 97.9875 23.125C98.3725 23.125 98.675 23.4275 98.675 23.8125C98.675 24.1975 98.3725 24.5 97.9875 24.5ZM96.6125 24.5C96.2275 24.5 95.925 24.1975 95.925 23.8125C95.925 23.4275 96.2275 23.125 96.6125 23.125C96.9975 23.125 97.3 23.4275 97.3 23.8125C97.3 24.1975 96.9975 24.5 96.6125 24.5ZM97.9875 25.875C97.6025 25.875 97.3 25.5725 97.3 25.1875C97.3 24.8025 97.6025 24.5 97.9875 24.5C98.3725 24.5 98.675 24.8025 98.675 25.1875C98.675 25.5725 98.3725 25.875 97.9875 25.875ZM96.6125 25.875C96.2275 25.875 95.925 25.5725 95.925 25.1875C95.925 24.8025 96.2275 24.5 96.6125 24.5C96.9975 24.5 97.3 24.8025 97.3 25.1875C97.3 25.5725 96.9975 25.875 96.6125 25.875ZM97.9875 27.25C97.6025 27.25 97.3 26.9475 97.3 26.5625C97.3 26.1775 97.6025 25.875 97.9875 25.875C98.3725 25.875 98.675 26.1775 98.675 26.5625C98.675 26.9475 98.3725 27.25 97.9875 27.25ZM96.6125 27.25C96.2275 27.25 95.925 26.9475 95.925 26.5625C95.925 26.1775 96.2275 25.875 96.6125 25.875C96.9975 25.875 97.3 26.1775 97.3 26.5625C97.3 26.9475 96.9975 27.25 96.6125 27.25ZM97.9875 28.625C97.6025 28.625 97.3 28.3225 97.3 27.9375C97.3 27.5525 97.6025 27.25 97.9875 27.25C98.3725 27.25 98.675 27.5525 98.675 27.9375C98.675 28.3225 98.3725 28.625 97.9875 28.625ZM96.6125 28.625C96.2275 28.625 95.925 28.3225 95.925 27.9375C95.925 27.5525 96.2275 27.25 96.6125 27.25C96.9975 27.25 97.3 27.5525 97.3 27.9375C97.3 28.3225 96.9975 28.625 96.6125 28.625ZM96.6125 30C96.2275 30 95.925 29.6975 95.925 29.3125C95.925 28.9275 96.2275 28.625 96.6125 28.625C96.9975 28.625 97.3 28.9275 97.3 29.3125C97.3 29.6975 96.9975 30 96.6125 30ZM97.9875 30C97.6025 30 97.3 29.6975 97.3 29.3125C97.3 28.9275 97.6025 28.625 97.9875 28.625C98.3725 28.625 98.675 28.9275 98.675 29.3125C98.675 29.6975 98.3725 30 97.9875 30ZM108.272 17.625C107.887 17.625 107.585 17.3225 107.585 16.9375C107.585 16.5525 107.887 16.25 108.272 16.25C108.657 16.25 108.96 16.5525 108.96 16.9375C108.96 17.3225 108.657 17.625 108.272 17.625ZM109.647 17.625C109.262 17.625 108.96 17.3225 108.96 16.9375C108.96 16.5525 109.262 16.25 109.647 16.25C110.032 16.25 110.335 16.5525 110.335 16.9375C110.335 17.3225 110.032 17.625 109.647 17.625ZM111.022 17.625C110.637 17.625 110.335 17.3225 110.335 16.9375C110.335 16.5525 110.637 16.25 111.022 16.25C111.407 16.25 111.71 16.5525 111.71 16.9375C111.71 17.3225 111.407 17.625 111.022 17.625ZM112.397 17.625C112.012 17.625 111.71 17.3225 111.71 16.9375C111.71 16.5525 112.012 16.25 112.397 16.25C112.782 16.25 113.085 16.5525 113.085 16.9375C113.085 17.3225 112.782 17.625 112.397 17.625ZM106.897 17.625C106.512 17.625 106.21 17.3225 106.21 16.9375C106.21 16.5525 106.512 16.25 106.897 16.25C107.282 16.25 107.585 16.5525 107.585 16.9375C107.585 17.3225 107.282 17.625 106.897 17.625ZM105.522 17.625C105.137 17.625 104.835 17.3225 104.835 16.9375C104.835 16.5525 105.137 16.25 105.522 16.25C105.907 16.25 106.21 16.5525 106.21 16.9375C106.21 17.3225 105.907 17.625 105.522 17.625ZM111.022 19C110.637 19 110.335 18.6975 110.335 18.3125C110.335 17.9275 110.637 17.625 111.022 17.625C111.407 17.625 111.71 17.9275 111.71 18.3125C111.71 18.6975 111.407 19 111.022 19ZM105.522 19C105.137 19 104.835 18.6975 104.835 18.3125C104.835 17.9275 105.137 17.625 105.522 17.625C105.907 17.625 106.21 17.9275 106.21 18.3125C106.21 18.6975 105.907 19 105.522 19ZM112.397 19C112.012 19 111.71 18.6975 111.71 18.3125C111.71 17.9275 112.012 17.625 112.397 17.625C112.782 17.625 113.085 17.9275 113.085 18.3125C113.085 18.6975 112.782 19 112.397 19ZM106.897 19C106.512 19 106.21 18.6975 106.21 18.3125C106.21 17.9275 106.512 17.625 106.897 17.625C107.282 17.625 107.585 17.9275 107.585 18.3125C107.585 18.6975 107.282 19 106.897 19ZM108.272 19C107.887 19 107.585 18.6975 107.585 18.3125C107.585 17.9275 107.887 17.625 108.272 17.625C108.657 17.625 108.96 17.9275 108.96 18.3125C108.96 18.6975 108.657 19 108.272 19ZM109.647 19C109.262 19 108.96 18.6975 108.96 18.3125C108.96 17.9275 109.262 17.625 109.647 17.625C110.032 17.625 110.335 17.9275 110.335 18.3125C110.335 18.6975 110.032 19 109.647 19ZM106.897 20.375C106.512 20.375 106.21 20.0725 106.21 19.6875C106.21 19.3025 106.512 19 106.897 19C107.282 19 107.585 19.3025 107.585 19.6875C107.585 20.0725 107.282 20.375 106.897 20.375ZM105.522 20.375C105.137 20.375 104.835 20.0725 104.835 19.6875C104.835 19.3025 105.137 19 105.522 19C105.907 19 106.21 19.3025 106.21 19.6875C106.21 20.0725 105.907 20.375 105.522 20.375ZM105.522 21.75C105.137 21.75 104.835 21.4475 104.835 21.0625C104.835 20.6775 105.137 20.375 105.522 20.375C105.907 20.375 106.21 20.6775 106.21 21.0625C106.21 21.4475 105.907 21.75 105.522 21.75ZM106.897 21.75C106.512 21.75 106.21 21.4475 106.21 21.0625C106.21 20.6775 106.512 20.375 106.897 20.375C107.282 20.375 107.585 20.6775 107.585 21.0625C107.585 21.4475 107.282 21.75 106.897 21.75ZM112.397 23.125C112.012 23.125 111.71 22.8225 111.71 22.4375C111.71 22.0525 112.012 21.75 112.397 21.75C112.782 21.75 113.085 22.0525 113.085 22.4375C113.085 22.8225 112.782 23.125 112.397 23.125ZM106.897 23.125C106.512 23.125 106.21 22.8225 106.21 22.4375C106.21 22.0525 106.512 21.75 106.897 21.75C107.282 21.75 107.585 22.0525 107.585 22.4375C107.585 22.8225 107.282 23.125 106.897 23.125ZM108.272 23.125C107.887 23.125 107.585 22.8225 107.585 22.4375C107.585 22.0525 107.887 21.75 108.272 21.75C108.657 21.75 108.96 22.0525 108.96 22.4375C108.96 22.8225 108.657 23.125 108.272 23.125ZM109.647 23.125C109.262 23.125 108.96 22.8225 108.96 22.4375C108.96 22.0525 109.262 21.75 109.647 21.75C110.032 21.75 110.335 22.0525 110.335 22.4375C110.335 22.8225 110.032 23.125 109.647 23.125ZM111.022 23.125C110.637 23.125 110.335 22.8225 110.335 22.4375C110.335 22.0525 110.637 21.75 111.022 21.75C111.407 21.75 111.71 22.0525 111.71 22.4375C111.71 22.8225 111.407 23.125 111.022 23.125ZM105.522 23.125C105.137 23.125 104.835 22.8225 104.835 22.4375C104.835 22.0525 105.137 21.75 105.522 21.75C105.907 21.75 106.21 22.0525 106.21 22.4375C106.21 22.8225 105.907 23.125 105.522 23.125ZM112.397 24.5C112.012 24.5 111.71 24.1975 111.71 23.8125C111.71 23.4275 112.012 23.125 112.397 23.125C112.782 23.125 113.085 23.4275 113.085 23.8125C113.085 24.1975 112.782 24.5 112.397 24.5ZM105.522 24.5C105.137 24.5 104.835 24.1975 104.835 23.8125C104.835 23.4275 105.137 23.125 105.522 23.125C105.907 23.125 106.21 23.4275 106.21 23.8125C106.21 24.1975 105.907 24.5 105.522 24.5ZM111.022 24.5C110.637 24.5 110.335 24.1975 110.335 23.8125C110.335 23.4275 110.637 23.125 111.022 23.125C111.407 23.125 111.71 23.4275 111.71 23.8125C111.71 24.1975 111.407 24.5 111.022 24.5ZM109.647 24.5C109.262 24.5 108.96 24.1975 108.96 23.8125C108.96 23.4275 109.262 23.125 109.647 23.125C110.032 23.125 110.335 23.4275 110.335 23.8125C110.335 24.1975 110.032 24.5 109.647 24.5ZM108.272 24.5C107.887 24.5 107.585 24.1975 107.585 23.8125C107.585 23.4275 107.887 23.125 108.272 23.125C108.657 23.125 108.96 23.4275 108.96 23.8125C108.96 24.1975 108.657 24.5 108.272 24.5ZM106.897 24.5C106.512 24.5 106.21 24.1975 106.21 23.8125C106.21 23.4275 106.512 23.125 106.897 23.125C107.282 23.125 107.585 23.4275 107.585 23.8125C107.585 24.1975 107.282 24.5 106.897 24.5ZM105.522 25.875C105.137 25.875 104.835 25.5725 104.835 25.1875C104.835 24.8025 105.137 24.5 105.522 24.5C105.907 24.5 106.21 24.8025 106.21 25.1875C106.21 25.5725 105.907 25.875 105.522 25.875ZM106.897 25.875C106.512 25.875 106.21 25.5725 106.21 25.1875C106.21 24.8025 106.512 24.5 106.897 24.5C107.282 24.5 107.585 24.8025 107.585 25.1875C107.585 25.5725 107.282 25.875 106.897 25.875ZM105.522 27.25C105.137 27.25 104.835 26.9475 104.835 26.5625C104.835 26.1775 105.137 25.875 105.522 25.875C105.907 25.875 106.21 26.1775 106.21 26.5625C106.21 26.9475 105.907 27.25 105.522 27.25ZM106.897 27.25C106.512 27.25 106.21 26.9475 106.21 26.5625C106.21 26.1775 106.512 25.875 106.897 25.875C107.282 25.875 107.585 26.1775 107.585 26.5625C107.585 26.9475 107.282 27.25 106.897 27.25ZM106.897 28.625C106.512 28.625 106.21 28.3225 106.21 27.9375C106.21 27.5525 106.512 27.25 106.897 27.25C107.282 27.25 107.585 27.5525 107.585 27.9375C107.585 28.3225 107.282 28.625 106.897 28.625ZM112.397 28.625C112.012 28.625 111.71 28.3225 111.71 27.9375C111.71 27.5525 112.012 27.25 112.397 27.25C112.782 27.25 113.085 27.5525 113.085 27.9375C113.085 28.3225 112.782 28.625 112.397 28.625ZM111.022 28.625C110.637 28.625 110.335 28.3225 110.335 27.9375C110.335 27.5525 110.637 27.25 111.022 27.25C111.407 27.25 111.71 27.5525 111.71 27.9375C111.71 28.3225 111.407 28.625 111.022 28.625ZM109.647 28.625C109.262 28.625 108.96 28.3225 108.96 27.9375C108.96 27.5525 109.262 27.25 109.647 27.25C110.032 27.25 110.335 27.5525 110.335 27.9375C110.335 28.3225 110.032 28.625 109.647 28.625ZM108.272 28.625C107.887 28.625 107.585 28.3225 107.585 27.9375C107.585 27.5525 107.887 27.25 108.272 27.25C108.657 27.25 108.96 27.5525 108.96 27.9375C108.96 28.3225 108.657 28.625 108.272 28.625ZM105.522 28.625C105.137 28.625 104.835 28.3225 104.835 27.9375C104.835 27.5525 105.137 27.25 105.522 27.25C105.907 27.25 106.21 27.5525 106.21 27.9375C106.21 28.3225 105.907 28.625 105.522 28.625ZM106.897 30C106.512 30 106.21 29.6975 106.21 29.3125C106.21 28.9275 106.512 28.625 106.897 28.625C107.282 28.625 107.585 28.9275 107.585 29.3125C107.585 29.6975 107.282 30 106.897 30ZM108.272 30C107.887 30 107.585 29.6975 107.585 29.3125C107.585 28.9275 107.887 28.625 108.272 28.625C108.657 28.625 108.96 28.9275 108.96 29.3125C108.96 29.6975 108.657 30 108.272 30ZM109.647 30C109.262 30 108.96 29.6975 108.96 29.3125C108.96 28.9275 109.262 28.625 109.647 28.625C110.032 28.625 110.335 28.9275 110.335 29.3125C110.335 29.6975 110.032 30 109.647 30ZM111.022 30C110.637 30 110.335 29.6975 110.335 29.3125C110.335 28.9275 110.637 28.625 111.022 28.625C111.407 28.625 111.71 28.9275 111.71 29.3125C111.71 29.6975 111.407 30 111.022 30ZM112.397 30C112.012 30 111.71 29.6975 111.71 29.3125C111.71 28.9275 112.012 28.625 112.397 28.625C112.782 28.625 113.085 28.9275 113.085 29.3125C113.085 29.6975 112.782 30 112.397 30ZM105.522 30C105.137 30 104.835 29.6975 104.835 29.3125C104.835 28.9275 105.137 28.625 105.522 28.625C105.907 28.625 106.21 28.9275 106.21 29.3125C106.21 29.6975 105.907 30 105.522 30ZM121.308 17.625C120.923 17.625 120.62 17.3225 120.62 16.9375C120.62 16.5525 120.923 16.25 121.308 16.25C121.693 16.25 121.995 16.5525 121.995 16.9375C121.995 17.3225 121.693 17.625 121.308 17.625ZM119.933 17.625C119.548 17.625 119.245 17.3225 119.245 16.9375C119.245 16.5525 119.548 16.25 119.933 16.25C120.318 16.25 120.62 16.5525 120.62 16.9375C120.62 17.3225 120.318 17.625 119.933 17.625ZM118.558 17.625C118.173 17.625 117.87 17.3225 117.87 16.9375C117.87 16.5525 118.173 16.25 118.558 16.25C118.943 16.25 119.245 16.5525 119.245 16.9375C119.245 17.3225 118.943 17.625 118.558 17.625ZM117.183 17.625C116.798 17.625 116.495 17.3225 116.495 16.9375C116.495 16.5525 116.798 16.25 117.183 16.25C117.568 16.25 117.87 16.5525 117.87 16.9375C117.87 17.3225 117.568 17.625 117.183 17.625ZM115.808 17.625C115.423 17.625 115.12 17.3225 115.12 16.9375C115.12 16.5525 115.423 16.25 115.808 16.25C116.193 16.25 116.495 16.5525 116.495 16.9375C116.495 17.3225 116.193 17.625 115.808 17.625ZM122.683 19C122.298 19 121.995 18.6975 121.995 18.3125C121.995 17.9275 122.298 17.625 122.683 17.625C123.068 17.625 123.37 17.9275 123.37 18.3125C123.37 18.6975 123.068 19 122.683 19ZM117.183 19C116.798 19 116.495 18.6975 116.495 18.3125C116.495 17.9275 116.798 17.625 117.183 17.625C117.568 17.625 117.87 17.9275 117.87 18.3125C117.87 18.6975 117.568 19 117.183 19ZM115.808 19C115.423 19 115.12 18.6975 115.12 18.3125C115.12 17.9275 115.423 17.625 115.808 17.625C116.193 17.625 116.495 17.9275 116.495 18.3125C116.495 18.6975 116.193 19 115.808 19ZM118.558 19C118.173 19 117.87 18.6975 117.87 18.3125C117.87 17.9275 118.173 17.625 118.558 17.625C118.943 17.625 119.245 17.9275 119.245 18.3125C119.245 18.6975 118.943 19 118.558 19ZM121.308 19C120.923 19 120.62 18.6975 120.62 18.3125C120.62 17.9275 120.923 17.625 121.308 17.625C121.693 17.625 121.995 17.9275 121.995 18.3125C121.995 18.6975 121.693 19 121.308 19ZM119.933 19C119.548 19 119.245 18.6975 119.245 18.3125C119.245 17.9275 119.548 17.625 119.933 17.625C120.318 17.625 120.62 17.9275 120.62 18.3125C120.62 18.6975 120.318 19 119.933 19ZM117.183 20.375C116.798 20.375 116.495 20.0725 116.495 19.6875C116.495 19.3025 116.798 19 117.183 19C117.568 19 117.87 19.3025 117.87 19.6875C117.87 20.0725 117.568 20.375 117.183 20.375ZM115.808 20.375C115.423 20.375 115.12 20.0725 115.12 19.6875C115.12 19.3025 115.423 19 115.808 19C116.193 19 116.495 19.3025 116.495 19.6875C116.495 20.0725 116.193 20.375 115.808 20.375ZM122.683 20.375C122.298 20.375 121.995 20.0725 121.995 19.6875C121.995 19.3025 122.298 19 122.683 19C123.068 19 123.37 19.3025 123.37 19.6875C123.37 20.0725 123.068 20.375 122.683 20.375ZM124.058 20.375C123.673 20.375 123.37 20.0725 123.37 19.6875C123.37 19.3025 123.673 19 124.058 19C124.443 19 124.745 19.3025 124.745 19.6875C124.745 20.0725 124.443 20.375 124.058 20.375ZM115.808 21.75C115.423 21.75 115.12 21.4475 115.12 21.0625C115.12 20.6775 115.423 20.375 115.808 20.375C116.193 20.375 116.495 20.6775 116.495 21.0625C116.495 21.4475 116.193 21.75 115.808 21.75ZM117.183 21.75C116.798 21.75 116.495 21.4475 116.495 21.0625C116.495 20.6775 116.798 20.375 117.183 20.375C117.568 20.375 117.87 20.6775 117.87 21.0625C117.87 21.4475 117.568 21.75 117.183 21.75ZM122.683 21.75C122.298 21.75 121.995 21.4475 121.995 21.0625C121.995 20.6775 122.298 20.375 122.683 20.375C123.068 20.375 123.37 20.6775 123.37 21.0625C123.37 21.4475 123.068 21.75 122.683 21.75ZM124.058 21.75C123.673 21.75 123.37 21.4475 123.37 21.0625C123.37 20.6775 123.673 20.375 124.058 20.375C124.443 20.375 124.745 20.6775 124.745 21.0625C124.745 21.4475 124.443 21.75 124.058 21.75ZM117.183 23.125C116.798 23.125 116.495 22.8225 116.495 22.4375C116.495 22.0525 116.798 21.75 117.183 21.75C117.568 21.75 117.87 22.0525 117.87 22.4375C117.87 22.8225 117.568 23.125 117.183 23.125ZM115.808 23.125C115.423 23.125 115.12 22.8225 115.12 22.4375C115.12 22.0525 115.423 21.75 115.808 21.75C116.193 21.75 116.495 22.0525 116.495 22.4375C116.495 22.8225 116.193 23.125 115.808 23.125ZM122.683 23.125C122.298 23.125 121.995 22.8225 121.995 22.4375C121.995 22.0525 122.298 21.75 122.683 21.75C123.068 21.75 123.37 22.0525 123.37 22.4375C123.37 22.8225 123.068 23.125 122.683 23.125ZM124.058 23.125C123.673 23.125 123.37 22.8225 123.37 22.4375C123.37 22.0525 123.673 21.75 124.058 21.75C124.443 21.75 124.745 22.0525 124.745 22.4375C124.745 22.8225 124.443 23.125 124.058 23.125ZM117.183 24.5C116.798 24.5 116.495 24.1975 116.495 23.8125C116.495 23.4275 116.798 23.125 117.183 23.125C117.568 23.125 117.87 23.4275 117.87 23.8125C117.87 24.1975 117.568 24.5 117.183 24.5ZM115.808 24.5C115.423 24.5 115.12 24.1975 115.12 23.8125C115.12 23.4275 115.423 23.125 115.808 23.125C116.193 23.125 116.495 23.4275 116.495 23.8125C116.495 24.1975 116.193 24.5 115.808 24.5ZM118.558 24.5C118.173 24.5 117.87 24.1975 117.87 23.8125C117.87 23.4275 118.173 23.125 118.558 23.125C118.943 23.125 119.245 23.4275 119.245 23.8125C119.245 24.1975 118.943 24.5 118.558 24.5ZM119.933 24.5C119.548 24.5 119.245 24.1975 119.245 23.8125C119.245 23.4275 119.548 23.125 119.933 23.125C120.318 23.125 120.62 23.4275 120.62 23.8125C120.62 24.1975 120.318 24.5 119.933 24.5ZM122.683 24.5C122.298 24.5 121.995 24.1975 121.995 23.8125C121.995 23.4275 122.298 23.125 122.683 23.125C123.068 23.125 123.37 23.4275 123.37 23.8125C123.37 24.1975 123.068 24.5 122.683 24.5ZM121.308 24.5C120.923 24.5 120.62 24.1975 120.62 23.8125C120.62 23.4275 120.923 23.125 121.308 23.125C121.693 23.125 121.995 23.4275 121.995 23.8125C121.995 24.1975 121.693 24.5 121.308 24.5ZM118.558 25.875C118.173 25.875 117.87 25.5725 117.87 25.1875C117.87 24.8025 118.173 24.5 118.558 24.5C118.943 24.5 119.245 24.8025 119.245 25.1875C119.245 25.5725 118.943 25.875 118.558 25.875ZM119.933 25.875C119.548 25.875 119.245 25.5725 119.245 25.1875C119.245 24.8025 119.548 24.5 119.933 24.5C120.318 24.5 120.62 24.8025 120.62 25.1875C120.62 25.5725 120.318 25.875 119.933 25.875ZM121.308 25.875C120.923 25.875 120.62 25.5725 120.62 25.1875C120.62 24.8025 120.923 24.5 121.308 24.5C121.693 24.5 121.995 24.8025 121.995 25.1875C121.995 25.5725 121.693 25.875 121.308 25.875ZM117.183 25.875C116.798 25.875 116.495 25.5725 116.495 25.1875C116.495 24.8025 116.798 24.5 117.183 24.5C117.568 24.5 117.87 24.8025 117.87 25.1875C117.87 25.5725 117.568 25.875 117.183 25.875ZM115.808 25.875C115.423 25.875 115.12 25.5725 115.12 25.1875C115.12 24.8025 115.423 24.5 115.808 24.5C116.193 24.5 116.495 24.8025 116.495 25.1875C116.495 25.5725 116.193 25.875 115.808 25.875ZM119.933 27.25C119.548 27.25 119.245 26.9475 119.245 26.5625C119.245 26.1775 119.548 25.875 119.933 25.875C120.318 25.875 120.62 26.1775 120.62 26.5625C120.62 26.9475 120.318 27.25 119.933 27.25ZM121.308 27.25C120.923 27.25 120.62 26.9475 120.62 26.5625C120.62 26.1775 120.923 25.875 121.308 25.875C121.693 25.875 121.995 26.1775 121.995 26.5625C121.995 26.9475 121.693 27.25 121.308 27.25ZM122.683 27.25C122.298 27.25 121.995 26.9475 121.995 26.5625C121.995 26.1775 122.298 25.875 122.683 25.875C123.068 25.875 123.37 26.1775 123.37 26.5625C123.37 26.9475 123.068 27.25 122.683 27.25ZM115.808 27.25C115.423 27.25 115.12 26.9475 115.12 26.5625C115.12 26.1775 115.423 25.875 115.808 25.875C116.193 25.875 116.495 26.1775 116.495 26.5625C116.495 26.9475 116.193 27.25 115.808 27.25ZM117.183 27.25C116.798 27.25 116.495 26.9475 116.495 26.5625C116.495 26.1775 116.798 25.875 117.183 25.875C117.568 25.875 117.87 26.1775 117.87 26.5625C117.87 26.9475 117.568 27.25 117.183 27.25ZM121.308 28.625C120.923 28.625 120.62 28.3225 120.62 27.9375C120.62 27.5525 120.923 27.25 121.308 27.25C121.693 27.25 121.995 27.5525 121.995 27.9375C121.995 28.3225 121.693 28.625 121.308 28.625ZM122.683 28.625C122.298 28.625 121.995 28.3225 121.995 27.9375C121.995 27.5525 122.298 27.25 122.683 27.25C123.068 27.25 123.37 27.5525 123.37 27.9375C123.37 28.3225 123.068 28.625 122.683 28.625ZM124.058 28.625C123.673 28.625 123.37 28.3225 123.37 27.9375C123.37 27.5525 123.673 27.25 124.058 27.25C124.443 27.25 124.745 27.5525 124.745 27.9375C124.745 28.3225 124.443 28.625 124.058 28.625ZM115.808 28.625C115.423 28.625 115.12 28.3225 115.12 27.9375C115.12 27.5525 115.423 27.25 115.808 27.25C116.193 27.25 116.495 27.5525 116.495 27.9375C116.495 28.3225 116.193 28.625 115.808 28.625ZM117.183 28.625C116.798 28.625 116.495 28.3225 116.495 27.9375C116.495 27.5525 116.798 27.25 117.183 27.25C117.568 27.25 117.87 27.5525 117.87 27.9375C117.87 28.3225 117.568 28.625 117.183 28.625ZM122.683 30C122.298 30 121.995 29.6975 121.995 29.3125C121.995 28.9275 122.298 28.625 122.683 28.625C123.068 28.625 123.37 28.9275 123.37 29.3125C123.37 29.6975 123.068 30 122.683 30ZM124.058 30C123.673 30 123.37 29.6975 123.37 29.3125C123.37 28.9275 123.673 28.625 124.058 28.625C124.443 28.625 124.745 28.9275 124.745 29.3125C124.745 29.6975 124.443 30 124.058 30ZM115.808 30C115.423 30 115.12 29.6975 115.12 29.3125C115.12 28.9275 115.423 28.625 115.808 28.625C116.193 28.625 116.495 28.9275 116.495 29.3125C116.495 29.6975 116.193 30 115.808 30ZM117.183 30C116.798 30 116.495 29.6975 116.495 29.3125C116.495 28.9275 116.798 28.625 117.183 28.625C117.568 28.625 117.87 28.9275 117.87 29.3125C117.87 29.6975 117.568 30 117.183 30ZM125.433 30C125.048 30 124.745 29.6975 124.745 29.3125C124.745 28.9275 125.048 28.625 125.433 28.625C125.818 28.625 126.12 28.9275 126.12 29.3125C126.12 29.6975 125.818 30 125.433 30Z" fill="#EC576D"/>
</svg>
