<svg width="262" height="61" viewBox="0 0 262 61" fill="none" xmlns="http://www.w3.org/2000/svg">
<mask id="path-1-outside-1_1593_1567" maskUnits="userSpaceOnUse" x="-7" y="-8" width="276" height="76" fill="black">
<rect fill="white" x="-7" y="-8" width="276" height="76"/>
<path d="M30.24 46H11.592C6.624 46 4.104 44.128 4.104 40.312V14.32H0.432V2.944H4.104V-0.00800419H19.08V2.944H37.728V14.32H19.08V34.408C19.08 34.48 19.152 34.552 19.224 34.552H22.68C22.752 34.552 22.824 34.48 22.824 34.408V17.272H37.728V40.312C37.728 44.128 35.208 46 30.24 46ZM56.3636 46H41.3876V-0.00800419H56.3636V46ZM149.515 60.328H105.019C101.347 60.328 97.5308 57.592 97.5308 54.64V11.656C97.5308 11.584 97.4588 11.512 97.3868 11.512H93.8588C93.7868 11.512 93.7148 11.584 93.7148 11.656V46H78.7388V11.656C78.7388 11.584 78.6668 11.512 78.5948 11.512H75.2108C75.1388 11.512 75.0668 11.584 75.0668 11.656V46H60.0908V-0.00800419H75.0668V2.944C76.8668 1 80.4668 -0.00800419 84.7868 -0.00800419C89.1788 -0.00800419 91.3388 1.144 92.9948 3.448C95.2267 0.639996 98.4668 -0.00800419 103.147 -0.00800419C108.331 -0.00800419 112.363 2.656 112.363 6.4V48.736C112.363 48.808 112.435 48.88 112.507 48.88H149.515V60.328ZM134.539 18.064V11.656C134.539 11.584 134.467 11.512 134.395 11.512H131.011C130.939 11.512 130.867 11.584 130.867 11.656V18.064H134.539ZM142.027 46H123.379C118.411 46 115.891 44.128 115.891 40.312V5.824C115.891 1.936 118.411 -0.00800419 123.379 -0.00800419H142.027C146.995 -0.00800419 149.515 1.936 149.515 5.824V28.792H130.867V34.408C130.867 34.48 130.939 34.552 131.011 34.552H134.395C134.467 34.552 134.539 34.48 134.539 34.408V31.672H149.515V40.312C149.515 44.128 146.995 46 142.027 46ZM186.81 60.328H153.114V-0.00800419H168.09V48.88H186.81V60.328ZM186.81 46H171.834V-0.00800419H186.81V46ZM261.296 60.328H216.728C211.688 60.328 209.168 58.456 209.168 54.64V11.656C209.168 11.584 209.096 11.512 209.024 11.512H205.64C205.568 11.512 205.496 11.584 205.496 11.656V46H190.52V-0.00800419H205.496V2.944C208.016 1 211.76 -0.00800419 216.656 -0.00800419C221.624 -0.00800419 224.144 1.936 224.144 5.824V48.736C224.144 48.808 224.216 48.88 224.288 48.88H261.296V60.328ZM246.32 18.064V11.656C246.32 11.584 246.248 11.512 246.176 11.512H242.792C242.72 11.512 242.648 11.584 242.648 11.656V18.064H246.32ZM253.808 46H235.16C230.192 46 227.672 44.128 227.672 40.312V5.824C227.672 1.936 230.192 -0.00800419 235.16 -0.00800419H253.808C258.776 -0.00800419 261.296 1.936 261.296 5.824V28.792H242.648V34.408C242.648 34.48 242.72 34.552 242.792 34.552H246.176C246.248 34.552 246.32 34.48 246.32 34.408V31.672H261.296V40.312C261.296 44.128 258.776 46 253.808 46Z"/>
</mask>
<path d="M30.24 46H11.592C6.624 46 4.104 44.128 4.104 40.312V14.32H0.432V2.944H4.104V-0.00800419H19.08V2.944H37.728V14.32H19.08V34.408C19.08 34.48 19.152 34.552 19.224 34.552H22.68C22.752 34.552 22.824 34.48 22.824 34.408V17.272H37.728V40.312C37.728 44.128 35.208 46 30.24 46ZM56.3636 46H41.3876V-0.00800419H56.3636V46ZM149.515 60.328H105.019C101.347 60.328 97.5308 57.592 97.5308 54.64V11.656C97.5308 11.584 97.4588 11.512 97.3868 11.512H93.8588C93.7868 11.512 93.7148 11.584 93.7148 11.656V46H78.7388V11.656C78.7388 11.584 78.6668 11.512 78.5948 11.512H75.2108C75.1388 11.512 75.0668 11.584 75.0668 11.656V46H60.0908V-0.00800419H75.0668V2.944C76.8668 1 80.4668 -0.00800419 84.7868 -0.00800419C89.1788 -0.00800419 91.3388 1.144 92.9948 3.448C95.2267 0.639996 98.4668 -0.00800419 103.147 -0.00800419C108.331 -0.00800419 112.363 2.656 112.363 6.4V48.736C112.363 48.808 112.435 48.88 112.507 48.88H149.515V60.328ZM134.539 18.064V11.656C134.539 11.584 134.467 11.512 134.395 11.512H131.011C130.939 11.512 130.867 11.584 130.867 11.656V18.064H134.539ZM142.027 46H123.379C118.411 46 115.891 44.128 115.891 40.312V5.824C115.891 1.936 118.411 -0.00800419 123.379 -0.00800419H142.027C146.995 -0.00800419 149.515 1.936 149.515 5.824V28.792H130.867V34.408C130.867 34.48 130.939 34.552 131.011 34.552H134.395C134.467 34.552 134.539 34.48 134.539 34.408V31.672H149.515V40.312C149.515 44.128 146.995 46 142.027 46ZM186.81 60.328H153.114V-0.00800419H168.09V48.88H186.81V60.328ZM186.81 46H171.834V-0.00800419H186.81V46ZM261.296 60.328H216.728C211.688 60.328 209.168 58.456 209.168 54.64V11.656C209.168 11.584 209.096 11.512 209.024 11.512H205.64C205.568 11.512 205.496 11.584 205.496 11.656V46H190.52V-0.00800419H205.496V2.944C208.016 1 211.76 -0.00800419 216.656 -0.00800419C221.624 -0.00800419 224.144 1.936 224.144 5.824V48.736C224.144 48.808 224.216 48.88 224.288 48.88H261.296V60.328ZM246.32 18.064V11.656C246.32 11.584 246.248 11.512 246.176 11.512H242.792C242.72 11.512 242.648 11.584 242.648 11.656V18.064H246.32ZM253.808 46H235.16C230.192 46 227.672 44.128 227.672 40.312V5.824C227.672 1.936 230.192 -0.00800419 235.16 -0.00800419H253.808C258.776 -0.00800419 261.296 1.936 261.296 5.824V28.792H242.648V34.408C242.648 34.48 242.72 34.552 242.792 34.552H246.176C246.248 34.552 246.32 34.48 246.32 34.408V31.672H261.296V40.312C261.296 44.128 258.776 46 253.808 46Z" fill="white"/>
<path d="M4.104 14.32H11.104V7.32H4.104V14.32ZM0.432 14.32H-6.568V21.32H0.432V14.32ZM0.432 2.944V-4.056H-6.568V2.944H0.432ZM4.104 2.944V9.944H11.104V2.944H4.104ZM4.104 -0.00800323V-7.008H-2.896V-0.00800323H4.104ZM19.08 -0.00800323H26.08V-7.008H19.08V-0.00800323ZM19.08 2.944H12.08V9.944H19.08V2.944ZM37.728 2.944H44.728V-4.056H37.728V2.944ZM37.728 14.32V21.32H44.728V14.32H37.728ZM19.08 14.32V7.32H12.08V14.32H19.08ZM22.824 17.272V10.272H15.824V17.272H22.824ZM37.728 17.272H44.728V10.272H37.728V17.272ZM30.24 39H11.592V53H30.24V39ZM11.592 39C10.7667 39 10.2745 38.9199 10.0335 38.8593C9.80054 38.8007 9.92783 38.7927 10.2043 39.0015C10.3445 39.1074 10.4994 39.2519 10.6459 39.4365C10.7927 39.6214 10.9033 39.8116 10.9808 39.9874C11.1357 40.3388 11.104 40.5039 11.104 40.312H-2.896C-2.896 43.9043 -1.60735 47.6245 1.76574 50.1725C4.76712 52.4397 8.43034 53 11.592 53V39ZM11.104 40.312V14.32H-2.896V40.312H11.104ZM4.104 7.32H0.432V21.32H4.104V7.32ZM7.432 14.32V2.944H-6.568V14.32H7.432ZM0.432 9.944H4.104V-4.056H0.432V9.944ZM11.104 2.944V-0.00800323H-2.896V2.944H11.104ZM4.104 6.992H19.08V-7.008H4.104V6.992ZM12.08 -0.00800323V2.944H26.08V-0.00800323H12.08ZM19.08 9.944H37.728V-4.056H19.08V9.944ZM30.728 2.944V14.32H44.728V2.944H30.728ZM37.728 7.32H19.08V21.32H37.728V7.32ZM12.08 14.32V34.408H26.08V14.32H12.08ZM12.08 34.408C12.08 36.7206 13.1658 38.4473 14.1752 39.4567C15.1847 40.4662 16.9114 41.552 19.224 41.552V27.552C21.4646 27.552 23.1193 28.6018 24.0748 29.5573C25.0302 30.5127 26.08 32.1674 26.08 34.408H12.08ZM19.224 41.552H22.68V27.552H19.224V41.552ZM22.68 41.552C24.9927 41.552 26.7194 40.4661 27.7288 39.4567C28.7382 38.4473 29.824 36.7206 29.824 34.408H15.824C15.824 32.1674 16.8738 30.5127 17.8292 29.5573C18.7846 28.6019 20.4393 27.552 22.68 27.552V41.552ZM29.824 34.408V17.272H15.824V34.408H29.824ZM22.824 24.272H37.728V10.272H22.824V24.272ZM30.728 17.272V40.312H44.728V17.272H30.728ZM30.728 40.312C30.728 40.5039 30.6963 40.3388 30.8512 39.9874C30.9287 39.8116 31.0393 39.6214 31.1861 39.4365C31.3326 39.2519 31.4875 39.1074 31.6277 39.0015C31.9042 38.7927 32.0315 38.8007 31.7985 38.8593C31.5575 38.9199 31.0653 39 30.24 39V53C33.4017 53 37.0649 52.4397 40.0663 50.1725C43.4394 47.6245 44.728 43.9043 44.728 40.312H30.728ZM56.3636 46V53H63.3636V46H56.3636ZM41.3876 46H34.3876V53H41.3876V46ZM41.3876 -0.00800323V-7.008H34.3876V-0.00800323H41.3876ZM56.3636 -0.00800323H63.3636V-7.008H56.3636V-0.00800323ZM56.3636 39H41.3876V53H56.3636V39ZM48.3876 46V-0.00800323H34.3876V46H48.3876ZM41.3876 6.992H56.3636V-7.008H41.3876V6.992ZM49.3636 -0.00800323V46H63.3636V-0.00800323H49.3636ZM149.515 60.328V67.328H156.515V60.328H149.515ZM93.7148 46V53H100.715V46H93.7148ZM78.7388 46H71.7388V53H78.7388V46ZM75.0667 46V53H82.0667V46H75.0667ZM60.0908 46H53.0908V53H60.0908V46ZM60.0908 -0.00800323V-7.008H53.0908V-0.00800323H60.0908ZM75.0667 -0.00800323H82.0667V-7.008H75.0667V-0.00800323ZM75.0667 2.944H68.0667V20.8071L80.2031 7.69986L75.0667 2.944ZM92.9948 3.448L87.3106 7.53345L92.7139 15.051L98.4745 7.8037L92.9948 3.448ZM149.515 48.88H156.515V41.88H149.515V48.88ZM134.539 18.064V25.064H141.539V18.064H134.539ZM130.867 18.064H123.867V25.064H130.867V18.064ZM149.515 28.792V35.792H156.515V28.792H149.515ZM130.867 28.792V21.792H123.867V28.792H130.867ZM134.539 31.672V24.672H127.539V31.672H134.539ZM149.515 31.672H156.515V24.672H149.515V31.672ZM149.515 53.328H105.019V67.328H149.515V53.328ZM105.019 53.328C104.957 53.328 104.804 53.3137 104.59 53.2396C104.375 53.1654 104.196 53.0639 104.081 52.9782C103.955 52.8845 104.014 52.8923 104.139 53.0938C104.27 53.3064 104.531 53.8399 104.531 54.64H90.5307C90.5307 59.1679 93.3339 62.4295 95.7149 64.2038C98.2314 66.0792 101.55 67.328 105.019 67.328V53.328ZM104.531 54.64V11.656H90.5307V54.64H104.531ZM104.531 11.656C104.531 9.3434 103.445 7.61671 102.436 6.6073C101.426 5.59789 99.6994 4.512 97.3867 4.512V18.512C95.1461 18.512 93.4913 17.4621 92.536 16.5067C91.5806 15.5513 90.5307 13.8966 90.5307 11.656H104.531ZM97.3867 4.512H93.8587V18.512H97.3867V4.512ZM93.8587 4.512C91.5461 4.512 89.8194 5.59784 88.81 6.60728C87.8006 7.6167 86.7148 9.3434 86.7148 11.656H100.715C100.715 13.8966 99.6649 15.5513 98.7095 16.5067C97.7541 17.4622 96.0994 18.512 93.8587 18.512V4.512ZM86.7148 11.656V46H100.715V11.656H86.7148ZM93.7148 39H78.7388V53H93.7148V39ZM85.7388 46V11.656H71.7388V46H85.7388ZM85.7388 11.656C85.7388 9.34333 84.6529 7.61663 83.6435 6.60725C82.6341 5.59787 80.9074 4.512 78.5947 4.512V18.512C76.3541 18.512 74.6994 17.4621 73.744 16.5067C72.7886 15.5514 71.7388 13.8967 71.7388 11.656H85.7388ZM78.5947 4.512H75.2108V18.512H78.5947V4.512ZM75.2108 4.512C72.8981 4.512 71.1714 5.59786 70.162 6.60726C69.1526 7.61666 68.0667 9.34336 68.0667 11.656H82.0667C82.0667 13.8966 81.0169 15.5513 80.0615 16.5067C79.1061 17.4621 77.4514 18.512 75.2108 18.512V4.512ZM68.0667 11.656V46H82.0667V11.656H68.0667ZM75.0667 39H60.0908V53H75.0667V39ZM67.0908 46V-0.00800323H53.0908V46H67.0908ZM60.0908 6.992H75.0667V-7.008H60.0908V6.992ZM68.0667 -0.00800323V2.944H82.0667V-0.00800323H68.0667ZM80.2031 7.69986C79.9693 7.95234 80.045 7.72569 80.9765 7.44875C81.8505 7.18893 83.134 6.992 84.7868 6.992V-7.008C79.9418 -7.008 73.7843 -5.97406 69.9304 -1.81186L80.2031 7.69986ZM84.7868 6.992C86.4267 6.992 86.9922 7.21643 87.0738 7.25268C87.0932 7.26133 87.095 7.26358 87.0865 7.25819C87.078 7.25277 87.0732 7.24864 87.0757 7.25079C87.0787 7.25332 87.1572 7.32003 87.3106 7.53345L98.6789 -0.637453C97.2777 -2.58687 95.4075 -4.36387 92.7597 -5.54068C90.2493 -6.65644 87.5388 -7.008 84.7868 -7.008V6.992ZM98.4745 7.8037C98.62 7.62062 98.7374 7.50271 99.2038 7.35978C99.8739 7.15441 101.025 6.992 103.147 6.992V-7.008C98.1524 -7.008 91.8983 -6.42219 87.515 -0.907707L98.4745 7.8037ZM103.147 6.992C104.62 6.992 105.473 7.38198 105.744 7.56761C105.858 7.64609 105.762 7.61202 105.626 7.38211C105.473 7.12363 105.363 6.76784 105.363 6.4H119.363C119.363 1.72727 116.771 -1.84906 113.654 -3.98361C110.613 -6.06599 106.858 -7.008 103.147 -7.008V6.992ZM105.363 6.4V48.736H119.363V6.4H105.363ZM105.363 48.736C105.363 51.0486 106.449 52.7753 107.458 53.7847C108.467 54.7941 110.194 55.88 112.507 55.88V41.88C114.747 41.88 116.402 42.9299 117.358 43.8853C118.313 44.8407 119.363 46.4954 119.363 48.736H105.363ZM112.507 55.88H149.515V41.88H112.507V55.88ZM142.515 48.88V60.328H156.515V48.88H142.515ZM141.539 18.064V11.656H127.539V18.064H141.539ZM141.539 11.656C141.539 9.34327 140.453 7.61658 139.443 6.60725C138.434 5.59794 136.708 4.512 134.395 4.512V18.512C132.154 18.512 130.499 17.4621 129.544 16.5067C128.589 15.5514 127.539 13.8967 127.539 11.656H141.539ZM134.395 4.512H131.011V18.512H134.395V4.512ZM131.011 4.512C128.698 4.512 126.971 5.59784 125.962 6.60735C124.952 7.61684 123.867 9.34353 123.867 11.656H137.867C137.867 13.8965 136.817 15.5512 135.862 16.5066C134.906 17.4622 133.251 18.512 131.011 18.512V4.512ZM123.867 11.656V18.064H137.867V11.656H123.867ZM130.867 25.064H134.539V11.064H130.867V25.064ZM142.027 39H123.379V53H142.027V39ZM123.379 39C122.553 39 122.061 38.9199 121.82 38.8593C121.587 38.8007 121.715 38.7927 121.991 39.0015C122.131 39.1074 122.286 39.2519 122.433 39.4365C122.579 39.6214 122.69 39.8116 122.768 39.9874C122.922 40.3388 122.891 40.5039 122.891 40.312H108.891C108.891 43.9043 110.179 47.6245 113.552 50.1725C116.554 52.4397 120.217 53 123.379 53V39ZM122.891 40.312V5.824H108.891V40.312H122.891ZM122.891 5.824C122.891 5.59896 122.927 5.72493 122.792 6.0407C122.723 6.1993 122.623 6.37684 122.487 6.55331C122.35 6.72978 122.203 6.87135 122.067 6.9776C121.794 7.18908 121.661 7.18667 121.874 7.13137C122.097 7.07337 122.571 6.992 123.379 6.992V-7.008C120.171 -7.008 116.482 -6.41247 113.477 -4.07761C110.141 -1.4854 108.891 2.24805 108.891 5.824H122.891ZM123.379 6.992H142.027V-7.008H123.379V6.992ZM142.027 6.992C142.835 6.992 143.309 7.07337 143.532 7.13137C143.744 7.18667 143.611 7.18908 143.339 6.9776C143.202 6.87135 143.055 6.72978 142.919 6.55331C142.782 6.37684 142.682 6.1993 142.614 6.0407C142.478 5.72493 142.515 5.59896 142.515 5.824H156.515C156.515 2.24805 155.265 -1.4854 151.929 -4.07761C148.924 -6.41247 145.234 -7.008 142.027 -7.008V6.992ZM142.515 5.824V28.792H156.515V5.824H142.515ZM149.515 21.792H130.867V35.792H149.515V21.792ZM123.867 28.792V34.408H137.867V28.792H123.867ZM123.867 34.408C123.867 36.7205 124.952 38.4471 125.962 39.4567C126.971 40.4662 128.698 41.552 131.011 41.552V27.552C133.251 27.552 134.906 28.6018 135.862 29.5573C136.817 30.5129 137.867 32.1675 137.867 34.408H123.867ZM131.011 41.552H134.395V27.552H131.011V41.552ZM134.395 41.552C136.707 41.552 138.434 40.4661 139.443 39.4568C140.453 38.4474 141.539 36.7207 141.539 34.408H127.539C127.539 32.1673 128.589 30.5126 129.544 29.5572C130.499 28.6019 132.154 27.552 134.395 27.552V41.552ZM141.539 34.408V31.672H127.539V34.408H141.539ZM134.539 38.672H149.515V24.672H134.539V38.672ZM142.515 31.672V40.312H156.515V31.672H142.515ZM142.515 40.312C142.515 40.5039 142.483 40.3388 142.638 39.9874C142.715 39.8116 142.826 39.6214 142.973 39.4365C143.119 39.2519 143.274 39.1074 143.414 39.0015C143.691 38.7927 143.818 38.8007 143.585 38.8593C143.344 38.9199 142.852 39 142.027 39V53C145.188 53 148.852 52.4397 151.853 50.1725C155.226 47.6245 156.515 43.9043 156.515 40.312H142.515ZM186.81 60.328V67.328H193.81V60.328H186.81ZM153.114 60.328H146.114V67.328H153.114V60.328ZM153.114 -0.00800323V-7.008H146.114V-0.00800323H153.114ZM168.09 -0.00800323H175.09V-7.008H168.09V-0.00800323ZM168.09 48.88H161.09V55.88H168.09V48.88ZM186.81 48.88H193.81V41.88H186.81V48.88ZM186.81 46V53H193.81V46H186.81ZM171.834 46H164.834V53H171.834V46ZM171.834 -0.00800323V-7.008H164.834V-0.00800323H171.834ZM186.81 -0.00800323H193.81V-7.008H186.81V-0.00800323ZM186.81 53.328H153.114V67.328H186.81V53.328ZM160.114 60.328V-0.00800323H146.114V60.328H160.114ZM153.114 6.992H168.09V-7.008H153.114V6.992ZM161.09 -0.00800323V48.88H175.09V-0.00800323H161.09ZM168.09 55.88H186.81V41.88H168.09V55.88ZM179.81 48.88V60.328H193.81V48.88H179.81ZM186.81 39H171.834V53H186.81V39ZM178.834 46V-0.00800323H164.834V46H178.834ZM171.834 6.992H186.81V-7.008H171.834V6.992ZM179.81 -0.00800323V46H193.81V-0.00800323H179.81ZM261.296 60.328V67.328H268.296V60.328H261.296ZM205.496 46V53H212.496V46H205.496ZM190.52 46H183.52V53H190.52V46ZM190.52 -0.00800323V-7.008H183.52V-0.00800323H190.52ZM205.496 -0.00800323H212.496V-7.008H205.496V-0.00800323ZM205.496 2.944H198.496V17.1848L209.772 8.48648L205.496 2.944ZM261.296 48.88H268.296V41.88H261.296V48.88ZM246.32 18.064V25.064H253.32V18.064H246.32ZM242.648 18.064H235.648V25.064H242.648V18.064ZM261.296 28.792V35.792H268.296V28.792H261.296ZM242.648 28.792V21.792H235.648V28.792H242.648ZM246.32 31.672V24.672H239.32V31.672H246.32ZM261.296 31.672H268.296V24.672H261.296V31.672ZM261.296 53.328H216.728V67.328H261.296V53.328ZM216.728 53.328C215.878 53.328 215.367 53.2467 215.111 53.183C214.863 53.1212 214.983 53.1087 215.258 53.315C215.398 53.4199 215.554 53.5643 215.703 53.7502C215.851 53.9364 215.964 54.1286 216.043 54.3069C216.2 54.6633 216.168 54.8323 216.168 54.64H202.168C202.168 58.2359 203.461 61.9667 206.858 64.515C209.871 66.7744 213.549 67.328 216.728 67.328V53.328ZM216.168 54.64V11.656H202.168V54.64H216.168ZM216.168 11.656C216.168 9.34333 215.083 7.61663 214.073 6.60725C213.064 5.59787 211.337 4.512 209.024 4.512V18.512C206.784 18.512 205.129 17.4621 204.174 16.5067C203.218 15.5514 202.168 13.8967 202.168 11.656H216.168ZM209.024 4.512H205.64V18.512H209.024V4.512ZM205.64 4.512C203.328 4.512 201.601 5.59786 200.592 6.60726C199.582 7.61666 198.496 9.34336 198.496 11.656H212.496C212.496 13.8966 211.447 15.5513 210.491 16.5067C209.536 17.4621 207.881 18.512 205.64 18.512V4.512ZM198.496 11.656V46H212.496V11.656H198.496ZM205.496 39H190.52V53H205.496V39ZM197.52 46V-0.00800323H183.52V46H197.52ZM190.52 6.992H205.496V-7.008H190.52V6.992ZM198.496 -0.00800323V2.944H212.496V-0.00800323H198.496ZM209.772 8.48648C210.584 7.85989 212.561 6.992 216.656 6.992V-7.008C210.96 -7.008 205.449 -5.85989 201.221 -2.59848L209.772 8.48648ZM216.656 6.992C217.464 6.992 217.938 7.07337 218.161 7.13137C218.374 7.18667 218.241 7.18908 217.969 6.9776C217.832 6.87136 217.685 6.72978 217.548 6.55332C217.412 6.37684 217.312 6.1993 217.244 6.0407C217.108 5.72493 217.144 5.59896 217.144 5.824H231.144C231.144 2.24805 229.895 -1.48541 226.558 -4.07761C223.553 -6.41247 219.864 -7.008 216.656 -7.008V6.992ZM217.144 5.824V48.736H231.144V5.824H217.144ZM217.144 48.736C217.144 51.0486 218.23 52.7753 219.24 53.7847C220.249 54.7942 221.976 55.88 224.288 55.88V41.88C226.529 41.88 228.184 42.9298 229.139 43.8853C230.095 44.8407 231.144 46.4954 231.144 48.736H217.144ZM224.288 55.88H261.296V41.88H224.288V55.88ZM254.296 48.88V60.328H268.296V48.88H254.296ZM253.32 18.064V11.656H239.32V18.064H253.32ZM253.32 11.656C253.32 9.34326 252.235 7.61655 251.225 6.6072C250.216 5.59785 248.489 4.512 246.176 4.512V18.512C243.936 18.512 242.281 17.4621 241.326 16.5068C240.37 15.5514 239.32 13.8967 239.32 11.656H253.32ZM246.176 4.512H242.792V18.512H246.176V4.512ZM242.792 4.512C240.48 4.512 238.753 5.59789 237.744 6.6073C236.734 7.61671 235.648 9.3434 235.648 11.656H249.648C249.648 13.8966 248.599 15.5513 247.643 16.5067C246.688 17.4621 245.033 18.512 242.792 18.512V4.512ZM235.648 11.656V18.064H249.648V11.656H235.648ZM242.648 25.064H246.32V11.064H242.648V25.064ZM253.808 39H235.16V53H253.808V39ZM235.16 39C234.335 39 233.843 38.9199 233.602 38.8593C233.369 38.8007 233.496 38.7927 233.773 39.0015C233.913 39.1074 234.068 39.2519 234.214 39.4365C234.361 39.6214 234.472 39.8116 234.549 39.9874C234.704 40.3388 234.672 40.5039 234.672 40.312H220.672C220.672 43.9043 221.961 47.6245 225.334 50.1725C228.336 52.4397 231.999 53 235.16 53V39ZM234.672 40.312V5.824H220.672V40.312H234.672ZM234.672 5.824C234.672 5.59896 234.709 5.72493 234.573 6.0407C234.505 6.1993 234.405 6.37684 234.268 6.55331C234.132 6.72978 233.985 6.87135 233.848 6.9776C233.576 7.18908 233.443 7.18667 233.656 7.13137C233.879 7.07337 234.353 6.992 235.16 6.992V-7.008C231.953 -7.008 228.264 -6.41247 225.259 -4.07761C221.922 -1.4854 220.672 2.24805 220.672 5.824H234.672ZM235.16 6.992H253.808V-7.008H235.16V6.992ZM253.808 6.992C254.616 6.992 255.09 7.07337 255.313 7.13137C255.526 7.18667 255.393 7.18908 255.121 6.9776C254.984 6.87136 254.837 6.72978 254.7 6.55332C254.564 6.37685 254.464 6.19931 254.396 6.04071C254.26 5.72493 254.296 5.59896 254.296 5.824H268.296C268.296 2.24805 267.047 -1.48541 263.71 -4.07761C260.705 -6.41247 257.016 -7.008 253.808 -7.008V6.992ZM254.296 5.824V28.792H268.296V5.824H254.296ZM261.296 21.792H242.648V35.792H261.296V21.792ZM235.648 28.792V34.408H249.648V28.792H235.648ZM235.648 34.408C235.648 36.7206 236.734 38.4473 237.744 39.4567C238.753 40.4661 240.48 41.552 242.792 41.552V27.552C245.033 27.552 246.688 28.6019 247.643 29.5573C248.599 30.5127 249.648 32.1674 249.648 34.408H235.648ZM242.792 41.552H246.176V27.552H242.792V41.552ZM246.176 41.552C248.489 41.552 250.216 40.4662 251.225 39.4568C252.235 38.4474 253.32 36.7207 253.32 34.408H239.32C239.32 32.1673 240.37 30.5126 241.326 29.5572C242.281 28.6018 243.936 27.552 246.176 27.552V41.552ZM253.32 34.408V31.672H239.32V34.408H253.32ZM246.32 38.672H261.296V24.672H246.32V38.672ZM254.296 31.672V40.312H268.296V31.672H254.296ZM254.296 40.312C254.296 40.5039 254.265 40.3388 254.42 39.9874C254.497 39.8116 254.608 39.6214 254.755 39.4365C254.901 39.2519 255.056 39.1074 255.196 39.0015C255.473 38.7927 255.6 38.8007 255.367 38.8593C255.126 38.9199 254.634 39 253.808 39V53C256.97 53 260.633 52.4397 263.635 50.1725C267.008 47.6245 268.296 43.9043 268.296 40.312H254.296Z" fill="black" mask="url(#path-1-outside-1_1593_1567)"/>
</svg>
